<svg width="1194.3875px" height="135.2px" xmlns="http://www.w3.org/2000/svg" viewBox="-347.19375 7.400000000000006 1194.3875 135.2" style="background: rgba(0, 0, 0, 0);" preserveAspectRatio="xMidYMid"><defs><linearGradient id="editing-sticker-gradient" x1="0.7673019572565104" y1="0.6361971499218639" x2="0.2326980427434896" y2="0.3638028500781361"><stop offset="0" stop-color="#fd9"></stop><stop offset="1" stop-color="#9df"></stop></linearGradient><filter id="editing-sticker" x="-100%" y="-100%" width="300%" height="300%"><feMorphology operator="erode" radius="1" in="SourceAlpha" result="alpha-erode"></feMorphology><feConvolveMatrix order="3,3" divisor="1" kernelMatrix="0 1 0 1 1 1 0 1 0" in="alpha-erode" result="alpha-round"></feConvolveMatrix><feMorphology operator="dilate" radius="3.5" in="alpha-round" result="dilate-shadow"></feMorphology><feGaussianBlur in="dilate-shadow" stdDeviation="1.5" result="shadow"></feGaussianBlur><feFlood flood-color="#fff" result="flood-sticker"></feFlood><feComposite operator="in" in="flood-sticker" in2="alpha-round" result="comp-sticker"></feComposite><feMorphology operator="dilate" radius="3" in="comp-sticker" result="morph-sticker"></feMorphology><feConvolveMatrix order="3,3" divisor="1" kernelMatrix="0 1 0 1 1 1 0 1 0" in="morph-sticker" result="sticker"></feConvolveMatrix><feMerge><feMergeNode in="shadow"></feMergeNode><feMergeNode in="sticker"></feMergeNode><feMergeNode in="SourceGraphic"></feMergeNode></feMerge></filter></defs><g filter="url(#editing-sticker)"><g transform="translate(-179.00092697143555, 108.61500549316406)"><path d="M33.29 1.46L33.29 1.46L33.29 1.46Q23.94 1.46 23.07-11.83L23.07-11.83L10.51-11.83L10.51-11.83Q9.05-8.47 8.03-5.55L8.03-5.55L6.13 0L-4.09 0L18.91-48.18L34.60-48.18L37.67-12.70L37.67-12.70Q38.40-5.04 41.32-2.77L41.32-2.77L41.32-2.77Q39.20 1.46 33.29 1.46ZM16.79-26.43L12.77-17.15L22.85-17.15L21.97-35.92L21.97-37.89L16.79-26.43ZM44.60-3.50L44.60-3.50L53.66-51.10L68.47-52.56L66.21-41.39L66.21-41.39Q65.41-37.96 64.39-35.55L64.39-35.55L64.39-35.55Q65.99-37.59 69.50-38.40L69.50-38.40L69.50-38.40Q70.52-38.69 71.76-38.69L71.76-38.69L71.76-38.69Q78.55-38.69 82.27-34.57L82.27-34.57L82.27-34.57Q85.99-30.44 85.99-22.48L85.99-22.48L85.99-22.48Q85.99-12.12 80.08-5.62L80.08-5.62L80.08-5.62Q73.73 1.46 62.20 1.46L62.20 1.46L62.20 1.46Q54.24 1.46 48.25-1.17L48.25-1.17L48.25-1.17Q46.14-2.12 44.60-3.50ZM63.14-25.55L59.28-4.16L59.28-4.16Q60.81-2.85 62.71-2.85L62.71-2.85L62.71-2.85Q64.61-2.85 65.70-3.58L65.70-3.58L65.70-3.58Q66.80-4.31 67.60-5.77L67.60-5.77L67.60-5.77Q69.79-9.71 71.54-21.75L71.54-21.75L71.54-21.75Q72.05-25.18 72.05-28.62L72.05-28.62L72.05-28.62Q72.05-32.05 71.28-33.14L71.28-33.14L71.28-33.14Q70.52-34.24 69.06-34.24L69.06-34.24L69.06-34.24Q64.61-34.24 63.14-25.55L63.14-25.55ZM113.81-3.07L113.81-3.07L113.81-3.07Q110.30 1.46 101.62 1.46L101.62 1.46L101.62 1.46Q97.09 1.46 93.80-1.28L93.80-1.28L93.80-1.28Q90.52-4.01 90.52-7.96L90.52-7.96L90.52-7.96Q90.52-10.15 90.74-11.24L90.74-11.24L95.63-37.23L110.45-38.69L105.12-10.51L105.12-10.51Q104.83-8.91 104.83-7.96L104.83-7.96L104.83-7.96Q104.83-3.72 107.38-3.72L107.38-3.72L107.38-3.72Q110.23-3.72 112.27-7.59L112.27-7.59L112.27-7.59Q112.93-8.83 113.22-10.44L113.22-10.44L118.41-37.23L132.79-38.69L127.38-10.22L127.38-10.22Q127.17-9.13 127.17-7.96L127.17-7.96L127.17-7.96Q127.17-6.79 127.82-5.51L127.82-5.51L127.82-5.51Q128.48-4.23 130.60-3.94L130.60-3.94L130.60-3.94Q130.16-2.19 128.63-1.02L128.63-1.02L128.63-1.02Q125.41 1.46 121.95 1.46L121.95 1.46L121.95 1.46Q118.48 1.46 116.44 0.22L116.44 0.22L116.44 0.22Q114.39-1.02 113.81-3.07ZM158.56-25.62L158.56-25.62L158.56-25.62Q159.58-28.32 159.58-30.66L159.58-30.66L159.58-30.66Q159.58-34.97 156.07-34.97L156.07-34.97L156.07-34.97Q154.25-34.97 152.75-33.32L152.75-33.32L152.75-33.32Q151.26-31.68 151.26-29.64L151.26-29.64L151.26-29.64Q151.26-28.18 152.42-27.01L152.42-27.01L152.42-27.01Q154.10-25.40 158.41-22.78L158.41-22.78L158.41-22.78Q162.72-20.15 164.36-17.99L164.36-17.99L164.36-17.99Q166.00-15.84 166.00-12.88L166.00-12.88L166.00-12.88Q166.00-9.93 164.58-7.23L164.58-7.23L164.58-7.23Q163.16-4.53 160.60-2.63L160.60-2.63L160.60-2.63Q155.13 1.46 146.37 1.46L146.37 1.46L146.37 1.46Q141.62 1.46 137.97-1.02L137.97-1.02L137.97-1.02Q134.32-3.43 134.32-6.28L134.32-6.28L134.32-6.28Q134.32-9.13 136.40-10.80L136.40-10.80L136.40-10.80Q138.48-12.48 141.55-12.48L141.55-12.48L141.55-12.48Q144.61-12.48 146.51-11.31L146.51-11.31L146.51-11.31Q145.56-8.91 145.56-7.30L145.56-7.30L145.56-7.30Q145.56-2.48 149.65-2.48L149.65-2.48L149.65-2.48Q151.40-2.48 152.57-3.58L152.57-3.58L152.57-3.58Q153.74-4.67 153.74-6.57L153.74-6.57L153.74-6.57Q153.74-10.29 147.46-14.23L147.46-14.23L147.46-14.23Q142.35-17.59 141.18-18.91L141.18-18.91L141.18-18.91Q139.21-21.24 139.21-24.16L139.21-24.16L139.21-24.16Q139.21-27.08 140.60-29.86L140.60-29.86L140.60-29.86Q141.99-32.63 144.54-34.60L144.54-34.60L144.54-34.60Q149.87-38.69 159.14-38.69L159.14-38.69L159.14-38.69Q163.88-38.69 166.70-36.79L166.70-36.79L166.70-36.79Q169.51-34.89 169.51-31.68L169.51-31.68L169.51-31.68Q169.51-28.47 167.57-26.64L167.57-26.64L167.57-26.64Q165.64-24.82 162.13-24.82L162.13-24.82L162.13-24.82Q159.72-24.82 158.56-25.62ZM201.77-12.34L201.77-12.34L201.77-12.34Q203.60-11.10 203.60-8.36L203.60-8.36L203.60-8.36Q203.60-5.62 202.21-3.87L202.21-3.87L202.21-3.87Q200.82-2.12 198.56-0.95L198.56-0.95L198.56-0.95Q193.89 1.46 188.85 1.46L188.85 1.46L188.85 1.46Q183.81 1.46 180.86 0.36L180.86 0.36L180.86 0.36Q177.90-0.73 175.93-2.77L175.93-2.77L175.93-2.77Q172.06-6.64 172.06-13.72L172.06-13.72L172.06-13.72Q172.06-24.75 178.05-31.46L178.05-31.46L178.05-31.46Q184.47-38.69 195.64-38.69L195.64-38.69L195.64-38.69Q202.58-38.69 206.01-35.77L206.01-35.77L206.01-35.77Q208.56-33.58 208.56-30.00L208.56-30.00L208.56-30.00Q208.56-17.15 186.37-17.15L186.37-17.15L186.37-17.15Q186.08-15.26 186.08-13.65L186.08-13.65L186.08-13.65Q186.08-10.29 187.57-9.02L187.57-9.02L187.57-9.02Q189.07-7.74 191.84-7.74L191.84-7.74L191.84-7.74Q194.62-7.74 197.57-9.02L197.57-9.02L197.57-9.02Q200.53-10.29 201.77-12.34ZM186.88-20.29L186.88-20.29L186.88-20.29Q192.06-20.29 195.06-23.51L195.06-23.51L195.06-23.51Q198.05-26.57 198.05-31.46L198.05-31.46L198.05-31.46Q198.05-33.14 197.43-34.05L197.43-34.05L197.43-34.05Q196.81-34.97 195.57-34.97L195.57-34.97L195.57-34.97Q194.33-34.97 193.27-34.49L193.27-34.49L193.27-34.49Q192.21-34.02 191.11-32.41L191.11-32.41L191.11-32.41Q188.41-28.76 186.88-20.29ZM258.13 1.46L258.13 1.46L258.13 1.46Q248.78 1.46 247.91-11.83L247.91-11.83L235.35-11.83L235.35-11.83Q233.89-8.47 232.87-5.55L232.87-5.55L230.97 0L220.75 0L243.75-48.18L259.44-48.18L262.51-12.70L262.51-12.70Q263.24-5.04 266.16-2.77L266.16-2.77L266.16-2.77Q264.04 1.46 258.13 1.46ZM241.63-26.43L237.62-17.15L247.69-17.15L246.81-35.92L246.81-37.89L241.63-26.43ZM275.57-30.51L275.57-30.51L275.57-30.51Q278.06-34.02 281.82-36.35L281.82-36.35L281.82-36.35Q285.58-38.69 290.18-38.69L290.18-38.69L290.18-38.69Q294.77-38.69 296.96-37.23L296.96-37.23L311.27-38.69L306.31-10.66L306.31-10.66Q303.75 3.65 298.35 9.27L298.35 9.27L298.35 9.27Q293.17 14.60 283.09 14.60L283.09 14.60L283.09 14.60Q275.43 14.60 271.05 12.19L271.05 12.19L271.05 12.19Q266.67 9.78 266.67 5.77L266.67 5.77L266.67 5.77Q266.67 2.77 268.93 1.06L268.93 1.06L268.93 1.06Q271.19-0.66 274.70-0.66L274.70-0.66L274.70-0.66Q277.76-0.66 280.10 0.73L280.10 0.73L280.10 0.73Q281.49 1.46 282.14 2.48L282.14 2.48L282.14 2.48Q280.47 3.94 280.47 6.35L280.47 6.35L280.47 6.35Q280.47 9.49 283.39 9.49L283.39 9.49L283.39 9.49Q288.28 9.49 291.05-2.04L291.05-2.04L291.05-2.04Q291.85-5.18 292.51-8.32L292.51-8.32L292.51-8.32Q289.23-4.31 281.78-4.31L281.78-4.31L281.78-4.31Q276.60-4.31 273.60-6.79L273.60-6.79L273.60-6.79Q270.61-9.27 270.61-15.11L270.61-15.11L270.61-15.11Q270.61-18.76 271.85-22.89L271.85-22.89L271.85-22.89Q273.09-27.01 275.57-30.51ZM285.06-14.89L285.06-14.89L285.06-14.89Q285.06-9.93 287.62-9.93L287.62-9.93L287.62-9.93Q289.37-9.93 291.05-11.83L291.05-11.83L291.05-11.83Q292.37-13.36 292.88-15.62L292.88-15.62L296.60-34.38L296.60-34.38Q296.23-34.46 295.87-34.60L295.87-34.60L295.87-34.60Q295.14-34.89 294.19-34.89L294.19-34.89L294.19-34.89Q289.74-34.89 287.11-27.59L287.11-27.59L287.11-27.59Q285.06-21.90 285.06-14.89ZM343.68-12.34L343.68-12.34L343.68-12.34Q345.51-11.10 345.51-8.36L345.51-8.36L345.51-8.36Q345.51-5.62 344.12-3.87L344.12-3.87L344.12-3.87Q342.74-2.12 340.47-0.95L340.47-0.95L340.47-0.95Q335.80 1.46 330.76 1.46L330.76 1.46L330.76 1.46Q325.73 1.46 322.77 0.36L322.77 0.36L322.77 0.36Q319.81-0.73 317.84-2.77L317.84-2.77L317.84-2.77Q313.97-6.64 313.97-13.72L313.97-13.72L313.97-13.72Q313.97-24.75 319.96-31.46L319.96-31.46L319.96-31.46Q326.38-38.69 337.55-38.69L337.55-38.69L337.55-38.69Q344.49-38.69 347.92-35.77L347.92-35.77L347.92-35.77Q350.47-33.58 350.47-30.00L350.47-30.00L350.47-30.00Q350.47-17.15 328.28-17.15L328.28-17.15L328.28-17.15Q327.99-15.26 327.99-13.65L327.99-13.65L327.99-13.65Q327.99-10.29 329.49-9.02L329.49-9.02L329.49-9.02Q330.98-7.74 333.76-7.74L333.76-7.74L333.76-7.74Q336.53-7.74 339.49-9.02L339.49-9.02L339.49-9.02Q342.44-10.29 343.68-12.34ZM328.79-20.29L328.79-20.29L328.79-20.29Q333.97-20.29 336.97-23.51L336.97-23.51L336.97-23.51Q339.96-26.57 339.96-31.46L339.96-31.46L339.96-31.46Q339.96-33.14 339.34-34.05L339.34-34.05L339.34-34.05Q338.72-34.97 337.48-34.97L337.48-34.97L337.48-34.97Q336.24-34.97 335.18-34.49L335.18-34.49L335.18-34.49Q334.12-34.02 333.03-32.41L333.03-32.41L333.03-32.41Q330.32-28.76 328.79-20.29ZM383.83 1.46L383.83 1.46L383.83 1.46Q375.00 1.46 375.00-5.40L375.00-5.40L375.00-5.40Q375.07-7.30 375.66-10.51L375.66-10.51L376.97-17.23L376.97-17.23Q378.94-26.72 378.94-28.83L378.94-28.83L378.94-28.83Q378.94-33.07 376.46-33.07L376.46-33.07L376.46-33.07Q372.30-33.07 370.11-22.19L370.11-22.19L365.80 0L351.13 1.46L358.72-37.30L370.69-38.69L369.53-31.54L369.53-31.54Q372.96-38.69 383.47-38.69L383.47-38.69L383.47-38.69Q388.58-38.69 390.73-36.54L390.73-36.54L390.73-36.54Q392.89-34.38 392.89-29.56L392.89-29.56L392.89-29.56Q392.89-25.04 390.55-14.45L390.55-14.45L390.55-14.45Q389.45-9.71 389.45-7.92L389.45-7.92L389.45-7.92Q389.45-6.13 390.44-5.11L390.44-5.11L390.44-5.11Q391.43-4.09 392.89-3.94L392.89-3.94L392.89-3.94Q392.16-1.46 389.64 0L389.64 0L389.64 0Q387.12 1.46 383.83 1.46ZM434.57-30.37L434.57-30.37L434.57-30.37Q434.57-27.30 432.01-25.40L432.01-25.40L432.01-25.40Q429.46-23.51 425.30-23.51L425.30-23.51L425.30-23.51Q423.55-23.51 422.52-24.02L422.52-24.02L422.52-24.02Q423.33-25.91 423.58-28.29L423.58-28.29L423.58-28.29Q423.84-30.66 423.84-31.32L423.84-31.32L423.84-31.32Q423.84-34.38 421.72-34.38L421.72-34.38L421.72-34.38Q420.26-34.38 418.62-32.56L418.62-32.56L418.62-32.56Q416.98-30.73 415.59-27.89L415.59-27.89L415.59-27.89Q412.52-21.32 412.52-14.67L412.52-14.67L412.52-14.67Q412.52-11.02 413.91-9.38L413.91-9.38L413.91-9.38Q415.30-7.74 418.36-7.74L418.36-7.74L418.36-7.74Q422.60-7.74 425.96-11.24L425.96-11.24L425.96-11.24Q426.90-12.34 427.42-13.58L427.42-13.58L427.42-13.58Q430.19-12.12 430.19-8.10L430.19-8.10L430.19-8.10Q430.19-4.01 425.66-1.31L425.66-1.31L425.66-1.31Q420.99 1.46 413.55 1.46L413.55 1.46L413.55 1.46Q398.73 1.46 398.73-14.23L398.73-14.23L398.73-14.23Q398.73-25.70 405.22-32.27L405.22-32.27L405.22-32.27Q411.50-38.69 423.04-38.69L423.04-38.69L423.04-38.69Q434.57-38.69 434.57-30.37ZM459.75-8.25L459.75-8.25L459.75-8.25Q455.96-4.31 449.02-4.31L449.02-4.31L449.02-4.31Q440.34-4.31 438.51-10.66L438.51-10.66L438.51-10.66Q437.93-12.56 437.93-14.67L437.93-14.67L437.93-14.67Q437.93-16.79 438.37-18.98L438.37-18.98L441.80-37.23L456.62-38.69L452.60-17.45L452.60-17.45Q452.45-16.50 452.24-15.48L452.24-15.48L452.24-15.48Q452.02-14.45 452.02-13.40L452.02-13.40L452.02-13.40Q452.02-12.34 452.38-11.64L452.38-11.64L452.38-11.64Q452.75-10.95 453.26-10.51L453.26-10.51L453.26-10.51Q454.13-9.93 455.70-9.93L455.70-9.93L455.70-9.93Q457.27-9.93 458.62-11.83L458.62-11.83L458.62-11.83Q459.97-13.72 460.63-17.01L460.63-17.01L464.65-37.23L479.03-38.69L473.55-10.00L473.55-10.00Q470.85 4.01 465.30 9.56L465.30 9.56L465.30 9.56Q462.46 12.41 458.77 13.54L458.77 13.54L458.77 13.54Q455.08 14.67 450.34 14.67L450.34 14.67L450.34 14.67Q442.67 14.67 438.29 12.26L438.29 12.26L438.29 12.26Q433.91 9.85 433.91 5.84L433.91 5.84L433.91 5.84Q433.91 2.85 436.18 1.13L436.18 1.13L436.18 1.13Q438.44-0.58 441.94-0.58L441.94-0.58L441.94-0.58Q445.01-0.58 447.34 0.73L447.34 0.73L447.34 0.73Q448.73 1.53 449.39 2.55L449.39 2.55L449.39 2.55Q447.71 4.01 447.71 6.42L447.71 6.42L447.71 6.42Q447.71 9.64 450.63 9.64L450.63 9.64L450.63 9.64Q455.45 9.64 458.22-1.46L458.22-1.46L458.22-1.46Q459.02-4.75 459.75-8.25ZM511.66 0L496.04 0L504.94-47.96L504.94-47.96Q512.17-48.76 522.72-48.76L522.72-48.76L522.72-48.76Q533.26-48.76 538.16-45.70L538.16-45.70L538.16-45.70Q543.05-42.63 543.05-36.46L543.05-36.46L543.05-36.46Q543.05-30.29 539.87-26.43L539.87-26.43L539.87-26.43Q536.70-22.56 531.22-21.32L531.22-21.32L531.22-21.32Q532.46-15.26 535.31-10.37L535.31-10.37L535.31-10.37Q537.94-5.77 541.00-4.31L541.00-4.31L541.00-4.31Q539.91-1.24 537.68 0.11L537.68 0.11L537.68 0.11Q535.46 1.46 532.28 1.46L532.28 1.46L532.28 1.46Q529.10 1.46 526.62-0.40L526.62-0.40L526.62-0.40Q524.14-2.26 522.17-5.69L522.17-5.69L522.17-5.69Q518.01-13.14 517.57-24.89L517.57-24.89L518.08-24.89L518.08-24.89Q523.48-25.04 526.18-27.85L526.18-27.85L526.18-27.85Q528.88-30.66 528.88-36.57L528.88-36.57L528.88-36.57Q528.88-43.95 522.68-44.24L522.68-44.24L521.07-44.24L521.07-44.24Q520.42-44.24 520.05-44.16L520.05-44.16L511.66 0ZM575.97-12.34L575.97-12.34L575.97-12.34Q577.79-11.10 577.79-8.36L577.79-8.36L577.79-8.36Q577.79-5.62 576.41-3.87L576.41-3.87L576.41-3.87Q575.02-2.12 572.76-0.95L572.76-0.95L572.76-0.95Q568.09 1.46 563.05 1.46L563.05 1.46L563.05 1.46Q558.01 1.46 555.06 0.36L555.06 0.36L555.06 0.36Q552.10-0.73 550.13-2.77L550.13-2.77L550.13-2.77Q546.26-6.64 546.26-13.72L546.26-13.72L546.26-13.72Q546.26-24.75 552.25-31.46L552.25-31.46L552.25-31.46Q558.67-38.69 569.84-38.69L569.84-38.69L569.84-38.69Q576.77-38.69 580.20-35.77L580.20-35.77L580.20-35.77Q582.76-33.58 582.76-30.00L582.76-30.00L582.76-30.00Q582.76-17.15 560.57-17.15L560.57-17.15L560.57-17.15Q560.27-15.26 560.27-13.65L560.27-13.65L560.27-13.65Q560.27-10.29 561.77-9.02L561.77-9.02L561.77-9.02Q563.27-7.74 566.04-7.74L566.04-7.74L566.04-7.74Q568.82-7.74 571.77-9.02L571.77-9.02L571.77-9.02Q574.73-10.29 575.97-12.34ZM561.08-20.29L561.08-20.29L561.08-20.29Q566.26-20.29 569.25-23.51L569.25-23.51L569.25-23.51Q572.25-26.57 572.25-31.46L572.25-31.46L572.25-31.46Q572.25-33.14 571.63-34.05L571.63-34.05L571.63-34.05Q571.01-34.97 569.76-34.97L569.76-34.97L569.76-34.97Q568.52-34.97 567.47-34.49L567.47-34.49L567.47-34.49Q566.41-34.02 565.31-32.41L565.31-32.41L565.31-32.41Q562.61-28.76 561.08-20.29ZM607.07-25.62L607.07-25.62L607.07-25.62Q608.09-28.32 608.09-30.66L608.09-30.66L608.09-30.66Q608.09-34.97 604.59-34.97L604.59-34.97L604.59-34.97Q602.76-34.97 601.26-33.32L601.26-33.32L601.26-33.32Q599.77-31.68 599.77-29.64L599.77-29.64L599.77-29.64Q599.77-28.18 600.94-27.01L600.94-27.01L600.94-27.01Q602.62-25.40 606.92-22.78L606.92-22.78L606.92-22.78Q611.23-20.15 612.87-17.99L612.87-17.99L612.87-17.99Q614.51-15.84 614.51-12.88L614.51-12.88L614.51-12.88Q614.51-9.93 613.09-7.23L613.09-7.23L613.09-7.23Q611.67-4.53 609.11-2.63L609.11-2.63L609.11-2.63Q603.64 1.46 594.88 1.46L594.88 1.46L594.88 1.46Q590.13 1.46 586.48-1.02L586.48-1.02L586.48-1.02Q582.83-3.43 582.83-6.28L582.83-6.28L582.83-6.28Q582.83-9.13 584.91-10.80L584.91-10.80L584.91-10.80Q586.99-12.48 590.06-12.48L590.06-12.48L590.06-12.48Q593.13-12.48 595.02-11.31L595.02-11.31L595.02-11.31Q594.07-8.91 594.07-7.30L594.07-7.30L594.07-7.30Q594.07-2.48 598.16-2.48L598.16-2.48L598.16-2.48Q599.91-2.48 601.08-3.58L601.08-3.58L601.08-3.58Q602.25-4.67 602.25-6.57L602.25-6.57L602.25-6.57Q602.25-10.29 595.97-14.23L595.97-14.23L595.97-14.23Q590.86-17.59 589.69-18.91L589.69-18.91L589.69-18.91Q587.72-21.24 587.72-24.16L587.72-24.16L587.72-24.16Q587.72-27.08 589.11-29.86L589.11-29.86L589.11-29.86Q590.50-32.63 593.05-34.60L593.05-34.60L593.05-34.60Q598.38-38.69 607.65-38.69L607.65-38.69L607.65-38.69Q612.40-38.69 615.21-36.79L615.21-36.79L615.21-36.79Q618.02-34.89 618.02-31.68L618.02-31.68L618.02-31.68Q618.02-28.47 616.08-26.64L616.08-26.64L616.08-26.64Q614.15-24.82 610.64-24.82L610.64-24.82L610.64-24.82Q608.24-24.82 607.07-25.62ZM636.63 1.46L636.63 1.46L636.63 1.46Q620.57 1.46 620.57-13.65L620.57-13.65L620.57-13.65Q620.57-24.38 626.49-31.32L626.49-31.32L626.49-31.32Q632.76-38.69 643.64-38.69L643.64-38.69L643.64-38.69Q651.52-38.69 655.54-35.04L655.54-35.04L655.54-35.04Q659.55-31.39 659.55-23.72L659.55-23.72L659.55-23.72Q659.55-12.04 653.28-5.26L653.28-5.26L653.28-5.26Q647.14 1.46 636.63 1.46ZM638.53-30.29L638.53-30.29L638.53-30.29Q637.65-28.32 636.96-25.37L636.96-25.37L636.96-25.37Q636.27-22.41 635.39-17.74L635.39-17.74L635.39-17.74Q634.52-13.07 634.52-7.30L634.52-7.30L634.52-7.30Q634.52-5.40 635.14-4.16L635.14-4.16L635.14-4.16Q635.76-2.92 637.44-2.92L637.44-2.92L637.44-2.92Q639.12-2.92 640.17-3.72L640.17-3.72L640.17-3.72Q641.23-4.53 642.03-6.42L642.03-6.42L642.03-6.42Q643.50-9.78 644.66-16.02L644.66-16.02L644.66-16.02Q645.83-22.26 645.94-24.97L645.94-24.97L645.94-24.97Q646.05-27.67 646.05-29.67L646.05-29.67L646.05-29.67Q646.05-31.68 645.47-33.00L645.47-33.00L645.47-33.00Q644.88-34.31 643.24-34.31L643.24-34.31L643.24-34.31Q641.60-34.31 640.50-33.29L640.50-33.29L640.50-33.29Q639.41-32.27 638.53-30.29ZM687.29-3.07L687.29-3.07L687.29-3.07Q683.79 1.46 675.10 1.46L675.10 1.46L675.10 1.46Q670.58 1.46 667.29-1.28L667.29-1.28L667.29-1.28Q664.01-4.01 664.01-7.96L664.01-7.96L664.01-7.96Q664.01-10.15 664.23-11.24L664.23-11.24L669.12-37.23L683.94-38.69L678.61-10.51L678.61-10.51Q678.32-8.91 678.32-7.96L678.32-7.96L678.32-7.96Q678.32-3.72 680.87-3.72L680.87-3.72L680.87-3.72Q683.72-3.72 685.76-7.59L685.76-7.59L685.76-7.59Q686.42-8.83 686.71-10.44L686.71-10.44L691.89-37.23L706.27-38.69L700.87-10.22L700.87-10.22Q700.65-9.13 700.65-7.96L700.65-7.96L700.65-7.96Q700.65-6.79 701.31-5.51L701.31-5.51L701.31-5.51Q701.97-4.23 704.09-3.94L704.09-3.94L704.09-3.94Q703.65-2.19 702.11-1.02L702.11-1.02L702.11-1.02Q698.90 1.46 695.43 1.46L695.43 1.46L695.43 1.46Q691.97 1.46 689.92 0.22L689.92 0.22L689.92 0.22Q687.88-1.02 687.29-3.07ZM733.07-20.51L733.07-20.51L733.07-20.51Q735.69-25.18 735.69-29.93L735.69-29.93L735.69-29.93Q735.69-33.07 733.43-33.07L733.43-33.07L733.43-33.07Q731.68-33.07 729.85-30.08L729.85-30.08L729.85-30.08Q727.96-27.08 727.37-23.21L727.37-23.21L723.58 0L708.47 1.46L715.91-37.23L727.96-38.69L726.64-31.32L726.64-31.32Q730.22-38.69 738.25-38.69L738.25-38.69L738.25-38.69Q742.48-38.69 744.78-36.50L744.78-36.50L744.78-36.50Q747.08-34.31 747.08-29.82L747.08-29.82L747.08-29.82Q747.08-25.33 744.13-22.48L744.13-22.48L744.13-22.48Q741.17-19.64 736.13-19.64L736.13-19.64L736.13-19.64Q733.94-19.64 733.07-20.51ZM784.09-30.37L784.09-30.37L784.09-30.37Q784.09-27.30 781.54-25.40L781.54-25.40L781.54-25.40Q778.98-23.51 774.82-23.51L774.82-23.51L774.82-23.51Q773.07-23.51 772.05-24.02L772.05-24.02L772.05-24.02Q772.85-25.91 773.11-28.29L773.11-28.29L773.11-28.29Q773.36-30.66 773.36-31.32L773.36-31.32L773.36-31.32Q773.36-34.38 771.25-34.38L771.25-34.38L771.25-34.38Q769.78-34.38 768.14-32.56L768.14-32.56L768.14-32.56Q766.50-30.73 765.11-27.89L765.11-27.89L765.11-27.89Q762.05-21.32 762.05-14.67L762.05-14.67L762.05-14.67Q762.05-11.02 763.43-9.38L763.43-9.38L763.43-9.38Q764.82-7.74 767.89-7.74L767.89-7.74L767.89-7.74Q772.12-7.74 775.48-11.24L775.48-11.24L775.48-11.24Q776.43-12.34 776.94-13.58L776.94-13.58L776.94-13.58Q779.71-12.12 779.71-8.10L779.71-8.10L779.71-8.10Q779.71-4.01 775.19-1.31L775.19-1.31L775.19-1.31Q770.51 1.46 763.07 1.46L763.07 1.46L763.07 1.46Q748.25 1.46 748.25-14.23L748.25-14.23L748.25-14.23Q748.25-25.70 754.75-32.27L754.75-32.27L754.75-32.27Q761.02-38.69 772.56-38.69L772.56-38.69L772.56-38.69Q784.09-38.69 784.09-30.37ZM815.63-12.34L815.63-12.34L815.63-12.34Q817.45-11.10 817.45-8.36L817.45-8.36L817.45-8.36Q817.45-5.62 816.07-3.87L816.07-3.87L816.07-3.87Q814.68-2.12 812.42-0.95L812.42-0.95L812.42-0.95Q807.75 1.46 802.71 1.46L802.71 1.46L802.71 1.46Q797.67 1.46 794.71 0.36L794.71 0.36L794.71 0.36Q791.76-0.73 789.79-2.77L789.79-2.77L789.79-2.77Q785.92-6.64 785.92-13.72L785.92-13.72L785.92-13.72Q785.92-24.75 791.90-31.46L791.90-31.46L791.90-31.46Q798.33-38.69 809.50-38.69L809.50-38.69L809.50-38.69Q816.43-38.69 819.86-35.77L819.86-35.77L819.86-35.77Q822.42-33.58 822.42-30.00L822.42-30.00L822.42-30.00Q822.42-17.15 800.23-17.15L800.23-17.15L800.23-17.15Q799.93-15.26 799.93-13.65L799.93-13.65L799.93-13.65Q799.93-10.29 801.43-9.02L801.43-9.02L801.43-9.02Q802.93-7.74 805.70-7.74L805.70-7.74L805.70-7.74Q808.48-7.74 811.43-9.02L811.43-9.02L811.43-9.02Q814.39-10.29 815.63-12.34ZM800.74-20.29L800.74-20.29L800.74-20.29Q805.92-20.29 808.91-23.51L808.91-23.51L808.91-23.51Q811.91-26.57 811.91-31.46L811.91-31.46L811.91-31.46Q811.91-33.14 811.29-34.05L811.29-34.05L811.29-34.05Q810.66-34.97 809.42-34.97L809.42-34.97L809.42-34.97Q808.18-34.97 807.12-34.49L807.12-34.49L807.12-34.49Q806.07-34.02 804.97-32.41L804.97-32.41L804.97-32.41Q802.27-28.76 800.74-20.29ZM846.73-25.62L846.73-25.62L846.73-25.62Q847.75-28.32 847.75-30.66L847.75-30.66L847.75-30.66Q847.75-34.97 844.25-34.97L844.25-34.97L844.25-34.97Q842.42-34.97 840.92-33.32L840.92-33.32L840.92-33.32Q839.43-31.68 839.43-29.64L839.43-29.64L839.43-29.64Q839.43-28.18 840.60-27.01L840.60-27.01L840.60-27.01Q842.27-25.40 846.58-22.78L846.58-22.78L846.58-22.78Q850.89-20.15 852.53-17.99L852.53-17.99L852.53-17.99Q854.17-15.84 854.17-12.88L854.17-12.88L854.17-12.88Q854.17-9.93 852.75-7.23L852.75-7.23L852.75-7.23Q851.33-4.53 848.77-2.63L848.77-2.63L848.77-2.63Q843.30 1.46 834.54 1.46L834.54 1.46L834.54 1.46Q829.79 1.46 826.14-1.02L826.14-1.02L826.14-1.02Q822.49-3.43 822.49-6.28L822.49-6.28L822.49-6.28Q822.49-9.13 824.57-10.80L824.57-10.80L824.57-10.80Q826.65-12.48 829.72-12.48L829.72-12.48L829.72-12.48Q832.78-12.48 834.68-11.31L834.68-11.31L834.68-11.31Q833.73-8.91 833.73-7.30L833.73-7.30L833.73-7.30Q833.73-2.48 837.82-2.48L837.82-2.48L837.82-2.48Q839.57-2.48 840.74-3.58L840.74-3.58L840.74-3.58Q841.91-4.67 841.91-6.57L841.91-6.57L841.91-6.57Q841.91-10.29 835.63-14.23L835.63-14.23L835.63-14.23Q830.52-17.59 829.35-18.91L829.35-18.91L829.35-18.91Q827.38-21.24 827.38-24.16L827.38-24.16L827.38-24.16Q827.38-27.08 828.77-29.86L828.77-29.86L828.77-29.86Q830.16-32.63 832.71-34.60L832.71-34.60L832.71-34.60Q838.04-38.69 847.31-38.69L847.31-38.69L847.31-38.69Q852.06-38.69 854.87-36.79L854.87-36.79L854.87-36.79Q857.68-34.89 857.68-31.68L857.68-31.68L857.68-31.68Q857.68-28.47 855.74-26.64L855.74-26.64L855.74-26.64Q853.81-24.82 850.30-24.82L850.30-24.82L850.30-24.82Q847.89-24.82 846.73-25.62Z" fill="url(#editing-sticker-gradient)" stroke="#000" stroke-width="2"></path></g></g><style>text {
  font-size: 64px;
  font-family: Arial Black;
  dominant-baseline: central;
  text-anchor: middle;
}</style></svg>