<svg width="392.35625px" height="106.39999999999999px" xmlns="http://www.w3.org/2000/svg" viewBox="53.821875000000006 21.800000000000004 392.35625 106.39999999999999" style="background: rgba(0, 0, 0, 0);" preserveAspectRatio="xMidYMid"><defs><linearGradient id="editing-sticker-gradient" x1="0.5" y1="0.2" x2="0.5" y2="0.8"><stop offset="0" stop-color="#fd9"></stop><stop offset="1" stop-color="#9df"></stop></linearGradient><filter id="editing-sticker" x="-100%" y="-100%" width="300%" height="300%"><feMorphology operator="erode" radius="1" in="SourceAlpha" result="alpha-erode"></feMorphology><feConvolveMatrix order="3,3" divisor="1" kernelMatrix="0 1 0 1 1 1 0 1 0" in="alpha-erode" result="alpha-round"></feConvolveMatrix><feMorphology operator="dilate" radius="3.5" in="alpha-round" result="dilate-shadow"></feMorphology><feGaussianBlur in="dilate-shadow" stdDeviation="1.5" result="shadow"></feGaussianBlur><feFlood flood-color="#fff" result="flood-sticker"></feFlood><feComposite operator="in" in="flood-sticker" in2="alpha-round" result="comp-sticker"></feComposite><feMorphology operator="dilate" radius="3" in="comp-sticker" result="morph-sticker"></feMorphology><feConvolveMatrix order="3,3" divisor="1" kernelMatrix="0 1 0 1 1 1 0 1 0" in="morph-sticker" result="sticker"></feConvolveMatrix><feMerge><feMergeNode in="shadow"></feMergeNode><feMergeNode in="sticker"></feMergeNode><feMergeNode in="SourceGraphic"></feMergeNode></feMerge></filter></defs><g filter="url(#editing-sticker)"><g transform="translate(112.86497473716736, 93.9000015258789)"><path d="M29.11-11.18L29.11-11.18L29.11-11.18Q30.51-10.15 30.51-7.96L30.51-7.96L30.51-7.96Q30.51-5.78 29.57-4.24L29.57-4.24L29.57-4.24Q28.62-2.70 26.78-1.51L26.78-1.51L26.78-1.51Q22.84 1.03 15.96 1.03L15.96 1.03L15.96 1.03Q9.07 1.03 5.32-2.56L5.32-2.56L5.32-2.56Q1.57-6.16 1.57-12.53L1.57-12.53L1.57-12.53Q1.57-21.55 6.26-28.40L6.26-28.40L6.26-28.40Q9.83-33.48 16.20-35.64L16.20-35.64L16.20-35.64Q19.49-36.72 22.73-36.72L22.73-36.72L22.73-36.72Q25.97-36.72 27.97-36.29L27.97-36.29L27.97-36.29Q29.97-35.86 31.48-34.99L31.48-34.99L31.48-34.99Q34.78-33.10 34.78-30.08L34.78-30.08L34.78-30.08Q34.78-27.32 32.18-25.27L32.18-25.27L32.18-25.27Q29.81-23.44 27.86-23.44L27.86-23.44L27.86-23.44Q25.92-23.44 25.11-23.71L25.11-23.71L25.11-23.71Q25.33-25.65 25.33-26.92L25.33-26.92L25.33-26.92Q25.33-28.19 25.27-29.11L25.27-29.11L25.27-29.11Q25.22-30.02 24.95-30.89L24.95-30.89L24.95-30.89Q24.41-32.89 22.76-32.89L22.76-32.89L22.76-32.89Q21.11-32.89 19.47-31.35L19.47-31.35L19.47-31.35Q17.82-29.81 16.42-27.22L16.42-27.22L16.42-27.22Q13.23-21.33 13.23-14.36L13.23-14.36L13.23-14.36Q13.23-11.02 15.12-9.10L15.12-9.10L15.12-9.10Q17.01-7.18 21.06-7.18L21.06-7.18L21.06-7.18Q24.08-7.18 26.95-9.18L26.95-9.18L26.95-9.18Q28.19-10.04 29.11-11.18ZM46.76 1.08L46.76 1.08L46.76 1.08Q34.88 1.08 34.88-10.10L34.88-10.10L34.88-10.10Q34.88-18.04 39.26-23.17L39.26-23.17L39.26-23.17Q43.90-28.62 51.95-28.62L51.95-28.62L51.95-28.62Q57.78-28.62 60.75-25.92L60.75-25.92L60.75-25.92Q63.72-23.22 63.72-17.55L63.72-17.55L63.72-17.55Q63.72-8.91 59.08-3.89L59.08-3.89L59.08-3.89Q54.54 1.08 46.76 1.08ZM48.17-22.41L48.17-22.41L48.17-22.41Q47.52-20.95 47.01-18.77L47.01-18.77L47.01-18.77Q46.49-16.58 45.85-13.12L45.85-13.12L45.85-13.12Q45.20-9.67 45.20-5.40L45.20-5.40L45.20-5.40Q45.20-4.00 45.66-3.08L45.66-3.08L45.66-3.08Q46.12-2.16 47.36-2.16L47.36-2.16L47.36-2.16Q48.60-2.16 49.38-2.75L49.38-2.75L49.38-2.75Q50.17-3.35 50.76-4.75L50.76-4.75L50.76-4.75Q51.84-7.24 52.70-11.85L52.70-11.85L52.70-11.85Q53.57-16.47 53.65-18.47L53.65-18.47L53.65-18.47Q53.73-20.47 53.73-21.95L53.73-21.95L53.73-21.95Q53.73-23.44 53.30-24.41L53.30-24.41L53.30-24.41Q52.87-25.38 51.65-25.38L51.65-25.38L51.65-25.38Q50.44-25.38 49.63-24.62L49.63-24.62L49.63-24.62Q48.82-23.87 48.17-22.41ZM89.75 1.08L89.75 1.08L89.75 1.08Q83.21 1.08 83.21-4.00L83.21-4.00L83.21-4.00Q83.27-5.40 83.70-7.78L83.70-7.78L84.67-12.74L84.67-12.74Q86.13-19.76 86.13-21.33L86.13-21.33L86.13-21.33Q86.13-24.46 84.29-24.46L84.29-24.46L84.29-24.46Q81.22-24.46 79.60-16.42L79.60-16.42L76.41 0L65.56 1.08L71.17-27.59L80.03-28.62L79.16-23.33L79.16-23.33Q81.70-28.62 89.48-28.62L89.48-28.62L89.48-28.62Q93.26-28.62 94.85-27.03L94.85-27.03L94.85-27.03Q96.44-25.43 96.44-21.87L96.44-21.87L96.44-21.87Q96.44-18.52 94.72-10.69L94.72-10.69L94.72-10.69Q93.91-7.18 93.91-5.86L93.91-5.86L93.91-5.86Q93.91-4.54 94.63-3.78L94.63-3.78L94.63-3.78Q95.36-3.02 96.44-2.92L96.44-2.92L96.44-2.92Q95.90-1.08 94.04 0L94.04 0L94.04 0Q92.18 1.08 89.75 1.08ZM101.63-5.40L101.63-5.40L101.63-5.40Q101.63-6.86 102.38-10.53L102.38-10.53L105.25-25.11L102.06-25.11L102.28-26.73L102.28-26.73Q108.76-28.67 115.02-33.43L115.02-33.43L117.61-33.43L116.32-27.54L120.53-27.54L120.04-25.11L115.88-25.11L113.13-10.53L113.13-10.53Q112.43-7.18 112.43-6.05L112.43-6.05L112.43-6.05Q112.43-3.46 114.70-2.92L114.70-2.92L114.70-2.92Q114.16-1.08 112.21 0L112.21 0L112.21 0Q110.27 1.08 107.51 1.08L107.51 1.08L107.51 1.08Q104.76 1.08 103.19-0.65L103.19-0.65L103.19-0.65Q101.63-2.38 101.63-5.40ZM122.39-1.62L122.39-1.62L122.39-1.62Q121.12-3.02 120.56-5.24L120.56-5.24L120.56-5.24Q119.99-7.45 119.99-11.07L119.99-11.07L119.99-11.07Q119.99-14.69 121.23-17.98L121.23-17.98L121.23-17.98Q122.47-21.28 124.74-23.65L124.74-23.65L124.74-23.65Q129.38-28.62 137.05-28.62L137.05-28.62L137.05-28.62Q139.81-28.62 141.80-27.70L141.80-27.70L151.04-28.62L147.04-7.56L147.04-7.56Q146.88-6.91 146.88-5.72L146.88-5.72L146.88-5.72Q146.88-4.54 147.61-3.78L147.61-3.78L147.61-3.78Q148.34-3.02 149.42-2.92L149.42-2.92L149.42-2.92Q148.88-1.08 146.91 0L146.91 0L146.91 0Q144.94 1.08 142.72 1.08L142.72 1.08L142.72 1.08Q140.51 1.08 139.02 0.24L139.02 0.24L139.02 0.24Q137.54-0.59 137.11-2.00L137.11-2.00L137.11-2.00Q136.24-0.65 134.41 0.22L134.41 0.22L134.41 0.22Q132.57 1.08 130.11 1.08L130.11 1.08L130.11 1.08Q127.66 1.08 125.66 0.43L125.66 0.43L125.66 0.43Q123.66-0.22 122.39-1.62ZM133.78-23.54L133.78-23.54L133.78-23.54Q133.16-22.57 132.62-20.93L132.62-20.93L132.62-20.93Q132.08-19.28 131.19-14.88L131.19-14.88L131.19-14.88Q130.30-10.48 130.30-7.34L130.30-7.34L130.30-7.34Q130.30-4.21 130.79-3.29L130.79-3.29L130.79-3.29Q131.27-2.38 132.14-2.38L132.14-2.38L132.14-2.38Q133.87-2.38 135.14-4.02L135.14-4.02L135.14-4.02Q136.40-5.67 136.89-8.59L136.89-8.59L139.75-24.41L139.75-24.41Q138.62-25.38 137.30-25.38L137.30-25.38L137.30-25.38Q135.97-25.38 135.19-24.95L135.19-24.95L135.19-24.95Q134.41-24.52 133.78-23.54ZM180.25-22.46L180.25-22.46L180.25-22.46Q180.25-20.20 178.36-18.79L178.36-18.79L178.36-18.79Q176.47-17.39 173.39-17.39L173.39-17.39L173.39-17.39Q172.10-17.39 171.34-17.77L171.34-17.77L171.34-17.77Q171.94-19.17 172.13-20.93L172.13-20.93L172.13-20.93Q172.31-22.68 172.31-23.17L172.31-23.17L172.31-23.17Q172.31-25.43 170.75-25.43L170.75-25.43L170.75-25.43Q169.67-25.43 168.45-24.08L168.45-24.08L168.45-24.08Q167.24-22.73 166.21-20.63L166.21-20.63L166.21-20.63Q163.94-15.77 163.94-10.85L163.94-10.85L163.94-10.85Q163.94-8.15 164.97-6.94L164.97-6.94L164.97-6.94Q166.00-5.72 168.26-5.72L168.26-5.72L168.26-5.72Q171.40-5.72 173.88-8.32L173.88-8.32L173.88-8.32Q174.58-9.13 174.96-10.04L174.96-10.04L174.96-10.04Q177.01-8.96 177.01-5.99L177.01-5.99L177.01-5.99Q177.01-2.97 173.66-0.97L173.66-0.97L173.66-0.97Q170.21 1.08 164.70 1.08L164.70 1.08L164.70 1.08Q153.74 1.08 153.74-10.53L153.74-10.53L153.74-10.53Q153.74-19.01 158.54-23.87L158.54-23.87L158.54-23.87Q163.19-28.62 171.72-28.62L171.72-28.62L171.72-28.62Q180.25-28.62 180.25-22.46ZM182.57-5.40L182.57-5.40L182.57-5.40Q182.57-6.86 183.33-10.53L183.33-10.53L186.19-25.11L183.01-25.11L183.22-26.73L183.22-26.73Q189.70-28.67 195.97-33.43L195.97-33.43L198.56-33.43L197.26-27.54L201.47-27.54L200.99-25.11L196.83-25.11L194.08-10.53L194.08-10.53Q193.37-7.18 193.37-6.05L193.37-6.05L193.37-6.05Q193.37-3.46 195.64-2.92L195.64-2.92L195.64-2.92Q195.10-1.08 193.16 0L193.16 0L193.16 0Q191.21 1.08 188.46 1.08L188.46 1.08L188.46 1.08Q185.71 1.08 184.14-0.65L184.14-0.65L184.14-0.65Q182.57-2.38 182.57-5.40ZM213.35-7.99L213.35-7.99L213.35-7.99Q213.35-10.10 213.89-12.80L213.89-12.80L218.27-35.64L230.20-35.64L225.88-12.64L225.88-12.64Q225.40-10.10 225.40-8.23L225.40-8.23L225.40-8.23Q225.40-6.37 226.18-5.40L226.18-5.40L226.18-5.40Q226.96-4.43 228.42-4.43L228.42-4.43L228.42-4.43Q229.88-4.43 230.80-4.81L230.80-4.81L230.80-4.81Q231.71-5.18 232.47-6.10L232.47-6.10L232.47-6.10Q233.93-7.94 234.85-12.64L234.85-12.64L239.22-35.64L247.37-35.64L243.05-12.69L243.05-12.69Q241.54-5.02 237.38-1.94L237.38-1.94L237.38-1.94Q233.33 1.08 225.34 1.08L225.34 1.08L225.34 1.08Q219.35 1.08 216.16-1.51L216.16-1.51L216.16-1.51Q213.35-3.78 213.35-7.99ZM264.60-18.95L264.60-18.95L264.60-18.95Q265.36-20.95 265.36-22.68L265.36-22.68L265.36-22.68Q265.36-25.87 262.76-25.87L262.76-25.87L262.76-25.87Q261.41-25.87 260.31-24.65L260.31-24.65L260.31-24.65Q259.20-23.44 259.20-21.92L259.20-21.92L259.20-21.92Q259.20-20.84 260.06-19.98L260.06-19.98L260.06-19.98Q261.31-18.79 264.49-16.85L264.49-16.85L264.49-16.85Q267.68-14.90 268.89-13.31L268.89-13.31L268.89-13.31Q270.11-11.72 270.11-9.53L270.11-9.53L270.11-9.53Q270.11-7.34 269.06-5.35L269.06-5.35L269.06-5.35Q268.00-3.35 266.11-1.94L266.11-1.94L266.11-1.94Q262.06 1.08 255.58 1.08L255.58 1.08L255.58 1.08Q252.07 1.08 249.37-0.76L249.37-0.76L249.37-0.76Q246.67-2.54 246.67-4.64L246.67-4.64L246.67-4.64Q246.67-6.75 248.21-7.99L248.21-7.99L248.21-7.99Q249.75-9.23 252.02-9.23L252.02-9.23L252.02-9.23Q254.29-9.23 255.69-8.37L255.69-8.37L255.69-8.37Q254.99-6.59 254.99-5.40L254.99-5.40L254.99-5.40Q254.99-1.84 258.01-1.84L258.01-1.84L258.01-1.84Q259.31-1.84 260.17-2.65L260.17-2.65L260.17-2.65Q261.04-3.46 261.04-4.86L261.04-4.86L261.04-4.86Q261.04-7.61 256.39-10.53L256.39-10.53L256.39-10.53Q252.61-13.01 251.75-13.99L251.75-13.99L251.75-13.99Q250.29-15.71 250.29-17.87L250.29-17.87L250.29-17.87Q250.29-20.03 251.32-22.09L251.32-22.09L251.32-22.09Q252.34-24.14 254.23-25.60L254.23-25.60L254.23-25.60Q258.17-28.62 265.03-28.62L265.03-28.62L265.03-28.62Q268.54-28.62 270.62-27.22L270.62-27.22L270.62-27.22Q272.70-25.81 272.70-23.44L272.70-23.44L272.70-23.44Q272.70-21.06 271.27-19.71L271.27-19.71L271.27-19.71Q269.84-18.36 267.25-18.36L267.25-18.36L267.25-18.36Q265.46-18.36 264.60-18.95Z" fill="url(#editing-sticker-gradient)" stroke="#000" stroke-width="2"></path></g></g><style>text {
  font-size: 64px;
  font-family: Arial Black;
  dominant-baseline: central;
  text-anchor: middle;
}</style></svg>