<svg width="430.25px" height="72.8px" xmlns="http://www.w3.org/2000/svg" viewBox="34.875 38.6 430.25 72.8" style="background: rgba(0, 0, 0, 0);" preserveAspectRatio="xMidYMid"><defs><linearGradient id="editing-sticker-gradient" x1="0.531358538980296" y1="0.201643431389518" x2="0.468641461019704" y2="0.798356568610482"><stop offset="0" stop-color="#fd9"></stop><stop offset="1" stop-color="#9df"></stop></linearGradient><filter id="editing-sticker" x="-100%" y="-100%" width="300%" height="300%"><feMorphology operator="erode" radius="1" in="SourceAlpha" result="alpha-erode"></feMorphology><feConvolveMatrix order="3,3" divisor="1" kernelMatrix="0 1 0 1 1 1 0 1 0" in="alpha-erode" result="alpha-round"></feConvolveMatrix><feMorphology operator="dilate" radius="3.5" in="alpha-round" result="dilate-shadow"></feMorphology><feGaussianBlur in="dilate-shadow" stdDeviation="1.5" result="shadow"></feGaussianBlur><feFlood flood-color="#fff" result="flood-sticker"></feFlood><feComposite operator="in" in="flood-sticker" in2="alpha-round" result="comp-sticker"></feComposite><feMorphology operator="dilate" radius="3" in="comp-sticker" result="morph-sticker"></feMorphology><feConvolveMatrix order="3,3" divisor="1" kernelMatrix="0 1 0 1 1 1 0 1 0" in="morph-sticker" result="sticker"></feConvolveMatrix><feMerge><feMergeNode in="shadow"></feMergeNode><feMergeNode in="sticker"></feMergeNode><feMergeNode in="SourceGraphic"></feMergeNode></feMerge></filter></defs><g filter="url(#editing-sticker)"><g transform="translate(99.47380797564983, 89.51999855041504)"><path d="M13.43-15.25L13.43-15.25L13.43-15.25Q13.93-16.24 13.93-17.16L13.93-17.16L13.93-17.16Q13.93-18.08 13.83-18.60L13.83-18.60L13.83-18.60Q13.73-19.11 13.50-19.50L13.50-19.50L13.50-19.50Q13.00-20.36 12.01-20.36L12.01-20.36L12.01-20.36Q10.79-20.36 9.80-19.47L9.80-19.47L9.80-19.47Q8.75-18.55 8.75-17.09L8.75-17.09L8.75-17.09Q8.75-16.17 9.39-15.46L9.39-15.46L9.39-15.46Q10.03-14.75 11.02-14.09L11.02-14.09L11.02-14.09Q12.01-13.43 13.13-12.77L13.13-12.77L13.13-12.77Q14.26-12.11 15.25-11.32L15.25-11.32L15.25-11.32Q17.52-9.50 17.52-7.06L17.52-7.06L17.52-7.06Q17.52-5.41 16.65-4.01L16.65-4.01L16.65-4.01Q15.77-2.61 14.32-1.58L14.32-1.58L14.32-1.58Q11.15 0.66 6.96 0.66L6.96 0.66L6.96 0.66Q3.56 0.66 1.82-0.45L1.82-0.45L1.82-0.45Q0.07-1.55 0.07-3.23L0.07-3.23L0.07-3.23Q0.07-6.24 2.41-7.00L2.41-7.00L2.41-7.00Q3.07-7.23 4.08-7.23L4.08-7.23L4.08-7.23Q5.08-7.23 6.24-6.80L6.24-6.80L6.24-6.80Q5.71-5.45 5.71-4.22L5.71-4.22L5.71-4.22Q5.71-1.58 7.59-1.58L7.59-1.58L7.59-1.58Q8.81-1.58 9.82-2.48L9.82-2.48L9.82-2.48Q10.82-3.37 10.82-4.37L10.82-4.37L10.82-4.37Q10.82-5.38 10.18-6.11L10.18-6.11L10.18-6.11Q9.54-6.83 8.58-7.41L8.58-7.41L8.58-7.41Q7.62-7.99 6.52-8.55L6.52-8.55L6.52-8.55Q5.41-9.11 4.46-9.90L4.46-9.90L4.46-9.90Q2.21-11.71 2.21-14.62L2.21-14.62L2.21-14.62Q2.21-16.50 3.14-17.97L3.14-17.97L3.14-17.97Q4.06-19.44 5.54-20.43L5.54-20.43L5.54-20.43Q8.51-22.44 12.16-22.44L12.16-22.44L12.16-22.44Q15.81-22.44 17.57-21.35L17.57-21.35L17.57-21.35Q19.34-20.26 19.34-18.41L19.34-18.41L19.34-18.41Q19.34-16.80 18.08-15.77L18.08-15.77L18.08-15.77Q17.00-14.92 15.68-14.92L15.68-14.92L15.68-14.92Q14.36-14.92 13.43-15.25ZM30.62-1.39L30.62-1.39L30.62-1.39Q29.04 0.66 25.11 0.66L25.11 0.66L25.11 0.66Q23.07 0.66 21.58-0.58L21.58-0.58L21.58-0.58Q20.10-1.82 20.10-3.60L20.10-3.60L20.10-3.60Q20.10-4.59 20.20-5.08L20.20-5.08L22.41-16.83L29.11-17.49L26.70-4.75L26.70-4.75Q26.57-4.03 26.57-3.60L26.57-3.60L26.57-3.60Q26.57-1.68 27.72-1.68L27.72-1.68L27.72-1.68Q29.01-1.68 29.93-3.43L29.93-3.43L29.93-3.43Q30.23-3.99 30.36-4.72L30.36-4.72L32.70-16.83L39.20-17.49L36.76-4.62L36.76-4.62Q36.66-4.13 36.66-3.60L36.66-3.60L36.66-3.60Q36.66-3.07 36.96-2.49L36.96-2.49L36.96-2.49Q37.26-1.91 38.21-1.78L38.21-1.78L38.21-1.78Q38.02-0.99 37.32-0.46L37.32-0.46L37.32-0.46Q35.87 0.66 34.30 0.66L34.30 0.66L34.30 0.66Q32.74 0.66 31.81 0.10L31.81 0.10L31.81 0.10Q30.89-0.46 30.62-1.39ZM56.36-2.26L56.36-2.26L56.36-2.26Q54.98-0.86 53.08-0.10L53.08-0.10L53.08-0.10Q51.18 0.66 49.30 0.66L49.30 0.66L49.30 0.66Q47.42 0.66 46.76 0.33L46.76 0.33L45.74 5.94L39.04 6.60L43.59-16.83L48.97-17.39L48.54-15.11L48.54-15.11Q49.93-17.46 52.80-17.46L52.80-17.46L52.80-17.46Q56.03-17.46 57.75-15.38L57.75-15.38L57.75-15.38Q59.27-13.50 59.27-10.63L59.27-10.63L59.27-10.63Q59.27-7.76 58.51-5.71L58.51-5.71L58.51-5.71Q57.75-3.66 56.36-2.26ZM48.91-11.52L47.16-1.85L47.16-1.85Q47.85-1.25 48.71-1.25L48.71-1.25L48.71-1.25Q49.57-1.25 50.06-1.58L50.06-1.58L50.06-1.58Q50.56-1.91 50.92-2.57L50.92-2.57L50.92-2.57Q51.91-4.36 52.70-9.77L52.70-9.77L52.70-9.77Q52.93-11.35 52.93-12.90L52.93-12.90L52.93-12.90Q52.93-14.45 52.59-14.95L52.59-14.95L52.59-14.95Q52.24-15.44 51.58-15.44L51.58-15.44L51.58-15.44Q49.57-15.44 48.91-11.52L48.91-11.52ZM76.63-2.26L76.63-2.26L76.63-2.26Q75.24-0.86 73.34-0.10L73.34-0.10L73.34-0.10Q71.45 0.66 69.56 0.66L69.56 0.66L69.56 0.66Q67.68 0.66 67.02 0.33L67.02 0.33L66 5.94L59.30 6.60L63.86-16.83L69.23-17.39L68.81-15.11L68.81-15.11Q70.19-17.46 73.06-17.46L73.06-17.46L73.06-17.46Q76.30-17.46 78.01-15.38L78.01-15.38L78.01-15.38Q79.53-13.50 79.53-10.63L79.53-10.63L79.53-10.63Q79.53-7.76 78.77-5.71L78.77-5.71L78.77-5.71Q78.01-3.66 76.63-2.26ZM69.17-11.52L67.42-1.85L67.42-1.85Q68.11-1.25 68.97-1.25L68.97-1.25L68.97-1.25Q69.83-1.25 70.32-1.58L70.32-1.58L70.32-1.58Q70.82-1.91 71.18-2.57L71.18-2.57L71.18-2.57Q72.17-4.36 72.96-9.77L72.96-9.77L72.96-9.77Q73.19-11.35 73.19-12.90L73.19-12.90L73.19-12.90Q73.19-14.45 72.85-14.95L72.85-14.95L72.85-14.95Q72.50-15.44 71.84-15.44L71.84-15.44L71.84-15.44Q69.83-15.44 69.17-11.52L69.17-11.52ZM88.70 0.66L88.70 0.66L88.70 0.66Q81.44 0.66 81.44-6.17L81.44-6.17L81.44-6.17Q81.44-11.02 84.12-14.16L84.12-14.16L84.12-14.16Q86.96-17.49 91.87-17.49L91.87-17.49L91.87-17.49Q95.44-17.49 97.25-15.84L97.25-15.84L97.25-15.84Q99.07-14.19 99.07-10.72L99.07-10.72L99.07-10.72Q99.07-5.45 96.23-2.38L96.23-2.38L96.23-2.38Q93.46 0.66 88.70 0.66ZM89.56-13.70L89.56-13.70L89.56-13.70Q89.17-12.80 88.85-11.47L88.85-11.47L88.85-11.47Q88.54-10.13 88.14-8.02L88.14-8.02L88.14-8.02Q87.75-5.91 87.75-3.30L87.75-3.30L87.75-3.30Q87.75-2.44 88.03-1.88L88.03-1.88L88.03-1.88Q88.31-1.32 89.07-1.32L89.07-1.32L89.07-1.32Q89.83-1.32 90.30-1.68L90.30-1.68L90.30-1.68Q90.78-2.05 91.15-2.90L91.15-2.90L91.15-2.90Q91.81-4.42 92.33-7.24L92.33-7.24L92.33-7.24Q92.86-10.07 92.91-11.29L92.91-11.29L92.91-11.29Q92.96-12.51 92.96-13.41L92.96-13.41L92.96-13.41Q92.96-14.32 92.70-14.92L92.70-14.92L92.70-14.92Q92.43-15.51 91.69-15.51L91.69-15.51L91.69-15.51Q90.95-15.51 90.45-15.05L90.45-15.05L90.45-15.05Q89.96-14.59 89.56-13.70ZM111.34-9.27L111.34-9.27L111.34-9.27Q112.53-11.38 112.53-13.53L112.53-13.53L112.53-13.53Q112.53-14.95 111.51-14.95L111.51-14.95L111.51-14.95Q110.72-14.95 109.89-13.60L109.89-13.60L109.89-13.60Q109.03-12.24 108.77-10.49L108.77-10.49L107.05 0L100.22 0.66L103.59-16.83L109.03-17.49L108.44-14.16L108.44-14.16Q110.06-17.49 113.69-17.49L113.69-17.49L113.69-17.49Q115.60-17.49 116.64-16.50L116.64-16.50L116.64-16.50Q117.68-15.51 117.68-13.48L117.68-13.48L117.68-13.48Q117.68-11.45 116.34-10.16L116.34-10.16L116.34-10.16Q115.01-8.88 112.73-8.88L112.73-8.88L112.73-8.88Q111.74-8.88 111.34-9.27ZM118.73-3.30L118.73-3.30L118.73-3.30Q118.73-4.19 119.20-6.44L119.20-6.44L120.95-15.35L119.00-15.35L119.13-16.34L119.13-16.34Q123.09-17.52 126.92-20.43L126.92-20.43L128.50-20.43L127.71-16.83L130.28-16.83L129.99-15.35L127.45-15.35L125.76-6.44L125.76-6.44Q125.33-4.39 125.33-3.70L125.33-3.70L125.33-3.70Q125.33-2.11 126.72-1.78L126.72-1.78L126.72-1.78Q126.39-0.66 125.20 0L125.20 0L125.20 0Q124.01 0.66 122.33 0.66L122.33 0.66L122.33 0.66Q120.65 0.66 119.69-0.40L119.69-0.40L119.69-0.40Q118.73-1.45 118.73-3.30ZM143.68 0L136.62 0L140.65-21.68L140.65-21.68Q143.91-22.04 148.68-22.04L148.68-22.04L148.68-22.04Q153.45-22.04 155.66-20.66L155.66-20.66L155.66-20.66Q157.87-19.27 157.87-16.48L157.87-16.48L157.87-16.48Q157.87-13.70 156.44-11.95L156.44-11.95L156.44-11.95Q155.00-10.20 152.53-9.64L152.53-9.64L152.53-9.64Q153.09-6.90 154.37-4.69L154.37-4.69L154.37-4.69Q155.56-2.61 156.95-1.95L156.95-1.95L156.95-1.95Q156.45-0.56 155.45 0.05L155.45 0.05L155.45 0.05Q154.44 0.66 153.00 0.66L153.00 0.66L153.00 0.66Q151.57 0.66 150.45-0.18L150.45-0.18L150.45-0.18Q149.33-1.02 148.43-2.57L148.43-2.57L148.43-2.57Q146.55-5.94 146.36-11.25L146.36-11.25L146.59-11.25L146.59-11.25Q149.03-11.32 150.25-12.59L150.25-12.59L150.25-12.59Q151.47-13.86 151.47-16.53L151.47-16.53L151.47-16.53Q151.47-19.87 148.67-20.00L148.67-20.00L147.94-20.00L147.94-20.00Q147.64-20.00 147.48-19.96L147.48-19.96L143.68 0ZM172.76-5.58L172.76-5.58L172.76-5.58Q173.58-5.02 173.58-3.78L173.58-3.78L173.58-3.78Q173.58-2.54 172.95-1.75L172.95-1.75L172.95-1.75Q172.33-0.96 171.30-0.43L171.30-0.43L171.30-0.43Q169.19 0.66 166.91 0.66L166.91 0.66L166.91 0.66Q164.64 0.66 163.30 0.17L163.30 0.17L163.30 0.17Q161.96-0.33 161.07-1.25L161.07-1.25L161.07-1.25Q159.32-3.00 159.32-6.20L159.32-6.20L159.32-6.20Q159.32-11.19 162.03-14.22L162.03-14.22L162.03-14.22Q164.93-17.49 169.98-17.49L169.98-17.49L169.98-17.49Q173.12-17.49 174.67-16.17L174.67-16.17L174.67-16.17Q175.82-15.18 175.82-13.56L175.82-13.56L175.82-13.56Q175.82-7.76 165.79-7.76L165.79-7.76L165.79-7.76Q165.66-6.90 165.66-6.17L165.66-6.17L165.66-6.17Q165.66-4.65 166.34-4.08L166.34-4.08L166.34-4.08Q167.01-3.50 168.27-3.50L168.27-3.50L168.27-3.50Q169.52-3.50 170.86-4.08L170.86-4.08L170.86-4.08Q172.19-4.65 172.76-5.58ZM166.02-9.17L166.02-9.17L166.02-9.17Q168.37-9.17 169.72-10.63L169.72-10.63L169.72-10.63Q171.07-12.01 171.07-14.22L171.07-14.22L171.07-14.22Q171.07-14.98 170.79-15.39L170.79-15.39L170.79-15.39Q170.51-15.81 169.95-15.81L169.95-15.81L169.95-15.81Q169.39-15.81 168.91-15.59L168.91-15.59L168.91-15.59Q168.43-15.38 167.94-14.65L167.94-14.65L167.94-14.65Q166.72-13.00 166.02-9.17ZM186.81-11.58L186.81-11.58L186.81-11.58Q187.28-12.80 187.28-13.86L187.28-13.86L187.28-13.86Q187.28-15.81 185.69-15.81L185.69-15.81L185.69-15.81Q184.87-15.81 184.19-15.06L184.19-15.06L184.19-15.06Q183.51-14.32 183.51-13.40L183.51-13.40L183.51-13.40Q183.51-12.74 184.04-12.21L184.04-12.21L184.04-12.21Q184.80-11.48 186.75-10.30L186.75-10.30L186.75-10.30Q188.69-9.11 189.44-8.13L189.44-8.13L189.44-8.13Q190.18-7.16 190.18-5.82L190.18-5.82L190.18-5.82Q190.18-4.49 189.54-3.27L189.54-3.27L189.54-3.27Q188.89-2.05 187.74-1.19L187.74-1.19L187.74-1.19Q185.26 0.66 181.30 0.66L181.30 0.66L181.30 0.66Q179.16 0.66 177.51-0.46L177.51-0.46L177.51-0.46Q175.86-1.55 175.86-2.84L175.86-2.84L175.86-2.84Q175.86-4.13 176.80-4.88L176.80-4.88L176.80-4.88Q177.74-5.64 179.12-5.64L179.12-5.64L179.12-5.64Q180.51-5.64 181.37-5.12L181.37-5.12L181.37-5.12Q180.94-4.03 180.94-3.30L180.94-3.30L180.94-3.30Q180.94-1.12 182.79-1.12L182.79-1.12L182.79-1.12Q183.58-1.12 184.11-1.62L184.11-1.62L184.11-1.62Q184.64-2.11 184.64-2.97L184.64-2.97L184.64-2.97Q184.64-4.65 181.80-6.44L181.80-6.44L181.80-6.44Q179.49-7.95 178.96-8.55L178.96-8.55L178.96-8.55Q178.07-9.60 178.07-10.92L178.07-10.92L178.07-10.92Q178.07-12.24 178.70-13.50L178.70-13.50L178.70-13.50Q179.32-14.75 180.48-15.64L180.48-15.64L180.48-15.64Q182.89-17.49 187.08-17.49L187.08-17.49L187.08-17.49Q189.22-17.49 190.49-16.63L190.49-16.63L190.49-16.63Q191.76-15.77 191.76-14.32L191.76-14.32L191.76-14.32Q191.76-12.87 190.89-12.04L190.89-12.04L190.89-12.04Q190.01-11.22 188.43-11.22L188.43-11.22L188.43-11.22Q187.34-11.22 186.81-11.58ZM200.18 0.66L200.18 0.66L200.18 0.66Q192.92 0.66 192.92-6.17L192.92-6.17L192.92-6.17Q192.92-11.02 195.59-14.16L195.59-14.16L195.59-14.16Q198.43-17.49 203.35-17.49L203.35-17.49L203.35-17.49Q206.91-17.49 208.73-15.84L208.73-15.84L208.73-15.84Q210.54-14.19 210.54-10.72L210.54-10.72L210.54-10.72Q210.54-5.45 207.70-2.38L207.70-2.38L207.70-2.38Q204.93 0.66 200.18 0.66ZM201.04-13.70L201.04-13.70L201.04-13.70Q200.64-12.80 200.33-11.47L200.33-11.47L200.33-11.47Q200.01-10.13 199.62-8.02L199.62-8.02L199.62-8.02Q199.22-5.91 199.22-3.30L199.22-3.30L199.22-3.30Q199.22-2.44 199.50-1.88L199.50-1.88L199.50-1.88Q199.78-1.32 200.54-1.32L200.54-1.32L200.54-1.32Q201.30-1.32 201.78-1.68L201.78-1.68L201.78-1.68Q202.26-2.05 202.62-2.90L202.62-2.90L202.62-2.90Q203.28-4.42 203.81-7.24L203.81-7.24L203.81-7.24Q204.34-10.07 204.39-11.29L204.39-11.29L204.39-11.29Q204.44-12.51 204.44-13.41L204.44-13.41L204.44-13.41Q204.44-14.32 204.17-14.92L204.17-14.92L204.17-14.92Q203.91-15.51 203.16-15.51L203.16-15.51L203.16-15.51Q202.42-15.51 201.93-15.05L201.93-15.05L201.93-15.05Q201.43-14.59 201.04-13.70ZM223.08-1.39L223.08-1.39L223.08-1.39Q221.50 0.66 217.57 0.66L217.57 0.66L217.57 0.66Q215.52 0.66 214.04-0.58L214.04-0.58L214.04-0.58Q212.55-1.82 212.55-3.60L212.55-3.60L212.55-3.60Q212.55-4.59 212.65-5.08L212.65-5.08L214.86-16.83L221.56-17.49L219.15-4.75L219.15-4.75Q219.02-4.03 219.02-3.60L219.02-3.60L219.02-3.60Q219.02-1.68 220.18-1.68L220.18-1.68L220.18-1.68Q221.46-1.68 222.39-3.43L222.39-3.43L222.39-3.43Q222.68-3.99 222.82-4.72L222.82-4.72L225.16-16.83L231.66-17.49L229.22-4.62L229.22-4.62Q229.12-4.13 229.12-3.60L229.12-3.60L229.12-3.60Q229.12-3.07 229.42-2.49L229.42-2.49L229.42-2.49Q229.71-1.91 230.67-1.78L230.67-1.78L230.67-1.78Q230.47-0.99 229.78-0.46L229.78-0.46L229.78-0.46Q228.33 0.66 226.76 0.66L226.76 0.66L226.76 0.66Q225.19 0.66 224.27 0.10L224.27 0.10L224.27 0.10Q223.34-0.46 223.08-1.39ZM243.77-9.27L243.77-9.27L243.77-9.27Q244.96-11.38 244.96-13.53L244.96-13.53L244.96-13.53Q244.96-14.95 243.94-14.95L243.94-14.95L243.94-14.95Q243.14-14.95 242.32-13.60L242.32-13.60L242.32-13.60Q241.46-12.24 241.20-10.49L241.20-10.49L239.48 0L232.65 0.66L236.02-16.83L241.46-17.49L240.87-14.16L240.87-14.16Q242.48-17.49 246.11-17.49L246.11-17.49L246.11-17.49Q248.03-17.49 249.07-16.50L249.07-16.50L249.07-16.50Q250.11-15.51 250.11-13.48L250.11-13.48L250.11-13.48Q250.11-11.45 248.77-10.16L248.77-10.16L248.77-10.16Q247.43-8.88 245.16-8.88L245.16-8.88L245.16-8.88Q244.17-8.88 243.77-9.27ZM266.84-13.73L266.84-13.73L266.84-13.73Q266.84-12.34 265.68-11.48L265.68-11.48L265.68-11.48Q264.53-10.63 262.65-10.63L262.65-10.63L262.65-10.63Q261.86-10.63 261.39-10.86L261.39-10.86L261.39-10.86Q261.76-11.71 261.87-12.79L261.87-12.79L261.87-12.79Q261.99-13.86 261.99-14.16L261.99-14.16L261.99-14.16Q261.99-15.54 261.03-15.54L261.03-15.54L261.03-15.54Q260.37-15.54 259.63-14.72L259.63-14.72L259.63-14.72Q258.89-13.89 258.26-12.61L258.26-12.61L258.26-12.61Q256.87-9.64 256.87-6.63L256.87-6.63L256.87-6.63Q256.87-4.98 257.50-4.24L257.50-4.24L257.50-4.24Q258.13-3.50 259.51-3.50L259.51-3.50L259.51-3.50Q261.43-3.50 262.94-5.08L262.94-5.08L262.94-5.08Q263.37-5.58 263.60-6.14L263.60-6.14L263.60-6.14Q264.86-5.48 264.86-3.66L264.86-3.66L264.86-3.66Q264.86-1.82 262.81-0.59L262.81-0.59L262.81-0.59Q260.70 0.66 257.33 0.66L257.33 0.66L257.33 0.66Q250.64 0.66 250.64-6.44L250.64-6.44L250.64-6.44Q250.64-11.62 253.57-14.59L253.57-14.59L253.57-14.59Q256.41-17.49 261.62-17.49L261.62-17.49L261.62-17.49Q266.84-17.49 266.84-13.73ZM281.09-5.58L281.09-5.58L281.09-5.58Q281.92-5.02 281.92-3.78L281.92-3.78L281.92-3.78Q281.92-2.54 281.29-1.75L281.29-1.75L281.29-1.75Q280.67-0.96 279.64-0.43L279.64-0.43L279.64-0.43Q277.53 0.66 275.25 0.66L275.25 0.66L275.25 0.66Q272.98 0.66 271.64 0.17L271.64 0.17L271.64 0.17Q270.30-0.33 269.41-1.25L269.41-1.25L269.41-1.25Q267.66-3.00 267.66-6.20L267.66-6.20L267.66-6.20Q267.66-11.19 270.37-14.22L270.37-14.22L270.37-14.22Q273.27-17.49 278.32-17.49L278.32-17.49L278.32-17.49Q281.46-17.49 283.01-16.17L283.01-16.17L283.01-16.17Q284.16-15.18 284.16-13.56L284.16-13.56L284.16-13.56Q284.16-7.76 274.13-7.76L274.13-7.76L274.13-7.76Q274.00-6.90 274.00-6.17L274.00-6.17L274.00-6.17Q274.00-4.65 274.68-4.08L274.68-4.08L274.68-4.08Q275.35-3.50 276.61-3.50L276.61-3.50L276.61-3.50Q277.86-3.50 279.20-4.08L279.20-4.08L279.20-4.08Q280.53-4.65 281.09-5.58ZM274.36-9.17L274.36-9.17L274.36-9.17Q276.71-9.17 278.06-10.63L278.06-10.63L278.06-10.63Q279.41-12.01 279.41-14.22L279.41-14.22L279.41-14.22Q279.41-14.98 279.13-15.39L279.13-15.39L279.13-15.39Q278.85-15.81 278.29-15.81L278.29-15.81L278.29-15.81Q277.73-15.81 277.25-15.59L277.25-15.59L277.25-15.59Q276.77-15.38 276.28-14.65L276.28-14.65L276.28-14.65Q275.06-13.00 274.36-9.17ZM295.15-11.58L295.15-11.58L295.15-11.58Q295.61-12.80 295.61-13.86L295.61-13.86L295.61-13.86Q295.61-15.81 294.03-15.81L294.03-15.81L294.03-15.81Q293.21-15.81 292.53-15.06L292.53-15.06L292.53-15.06Q291.85-14.32 291.85-13.40L291.85-13.40L291.85-13.40Q291.85-12.74 292.38-12.21L292.38-12.21L292.38-12.21Q293.14-11.48 295.09-10.30L295.09-10.30L295.09-10.30Q297.03-9.11 297.78-8.13L297.78-8.13L297.78-8.13Q298.52-7.16 298.52-5.82L298.52-5.82L298.52-5.82Q298.52-4.49 297.87-3.27L297.87-3.27L297.87-3.27Q297.23-2.05 296.08-1.19L296.08-1.19L296.08-1.19Q293.60 0.66 289.64 0.66L289.64 0.66L289.64 0.66Q287.50 0.66 285.85-0.46L285.85-0.46L285.85-0.46Q284.20-1.55 284.20-2.84L284.20-2.84L284.20-2.84Q284.20-4.13 285.14-4.88L285.14-4.88L285.14-4.88Q286.08-5.64 287.46-5.64L287.46-5.64L287.46-5.64Q288.85-5.64 289.71-5.12L289.71-5.12L289.71-5.12Q289.28-4.03 289.28-3.30L289.28-3.30L289.28-3.30Q289.28-1.12 291.13-1.12L291.13-1.12L291.13-1.12Q291.92-1.12 292.45-1.62L292.45-1.62L292.45-1.62Q292.97-2.11 292.97-2.97L292.97-2.97L292.97-2.97Q292.97-4.65 290.14-6.44L290.14-6.44L290.14-6.44Q287.83-7.95 287.30-8.55L287.30-8.55L287.30-8.55Q286.41-9.60 286.41-10.92L286.41-10.92L286.41-10.92Q286.41-12.24 287.03-13.50L287.03-13.50L287.03-13.50Q287.66-14.75 288.82-15.64L288.82-15.64L288.82-15.64Q291.23-17.49 295.42-17.49L295.42-17.49L295.42-17.49Q297.56-17.49 298.83-16.63L298.83-16.63L298.83-16.63Q300.10-15.77 300.10-14.32L300.10-14.32L300.10-14.32Q300.10-12.87 299.23-12.04L299.23-12.04L299.23-12.04Q298.35-11.22 296.77-11.22L296.77-11.22L296.77-11.22Q295.68-11.22 295.15-11.58Z" fill="url(#editing-sticker-gradient)" stroke="#000" stroke-width="1"></path></g></g><style>text {
  font-size: 64px;
  font-family: Arial Black;
  dominant-baseline: central;
  text-anchor: middle;
}</style></svg>