<svg width="1148.675px" height="273.2px" xmlns="http://www.w3.org/2000/svg" viewBox="-324.3375 -61.599999999999994 1148.675 273.2" style="background: rgba(0, 0, 0, 0);" preserveAspectRatio="xMidYMid"><defs><linearGradient id="editing-sticker-gradient" x1="0.5" y1="0.2" x2="0.5" y2="0.8"><stop offset="0" stop-color="#fd9"></stop><stop offset="1" stop-color="#9df"></stop></linearGradient><filter id="editing-sticker" x="-100%" y="-100%" width="300%" height="300%"><feMorphology operator="erode" radius="1" in="SourceAlpha" result="alpha-erode"></feMorphology><feConvolveMatrix order="3,3" divisor="1" kernelMatrix="0 1 0 1 1 1 0 1 0" in="alpha-erode" result="alpha-round"></feConvolveMatrix><feMorphology operator="dilate" radius="3.5" in="alpha-round" result="dilate-shadow"></feMorphology><feGaussianBlur in="dilate-shadow" stdDeviation="1.5" result="shadow"></feGaussianBlur><feFlood flood-color="#fff" result="flood-sticker"></feFlood><feComposite operator="in" in="flood-sticker" in2="alpha-round" result="comp-sticker"></feComposite><feMorphology operator="dilate" radius="3" in="comp-sticker" result="morph-sticker"></feMorphology><feConvolveMatrix order="3,3" divisor="1" kernelMatrix="0 1 0 1 1 1 0 1 0" in="morph-sticker" result="sticker"></feConvolveMatrix><feMerge><feMergeNode in="shadow"></feMergeNode><feMergeNode in="sticker"></feMergeNode><feMergeNode in="SourceGraphic"></feMergeNode></feMerge></filter></defs><g filter="url(#editing-sticker)"><g transform="translate(-160.08002504706383, 134.19999504089355)"><path d="M65.12-73.92L65.12-73.92L65.12-73.92Q67.52-78.72 67.52-83.20L67.52-83.20L67.52-83.20Q67.52-87.68 67.04-90.16L67.04-90.16L67.04-90.16Q66.56-92.64 65.44-94.56L65.44-94.56L65.44-94.56Q63.04-98.72 58.24-98.72L58.24-98.72L58.24-98.72Q52.32-98.72 47.52-94.40L47.52-94.40L47.52-94.40Q42.40-89.92 42.40-82.88L42.40-82.88L42.40-82.88Q42.40-78.40 45.52-74.96L45.52-74.96L45.52-74.96Q48.64-71.52 53.44-68.32L53.44-68.32L53.44-68.32Q58.24-65.12 63.68-61.92L63.68-61.92L63.68-61.92Q69.12-58.72 73.92-54.88L73.92-54.88L73.92-54.88Q84.96-46.08 84.96-34.24L84.96-34.24L84.96-34.24Q84.96-26.24 80.72-19.44L80.72-19.44L80.72-19.44Q76.48-12.64 69.44-7.68L69.44-7.68L69.44-7.68Q54.08 3.20 33.76 3.20L33.76 3.20L33.76 3.20Q17.28 3.20 8.80-2.16L8.80-2.16L8.80-2.16Q0.32-7.52 0.32-15.68L0.32-15.68L0.32-15.68Q0.32-30.24 11.68-33.92L11.68-33.92L11.68-33.92Q14.88-35.04 19.76-35.04L19.76-35.04L19.76-35.04Q24.64-35.04 30.24-32.96L30.24-32.96L30.24-32.96Q27.68-26.40 27.68-20.48L27.68-20.48L27.68-20.48Q27.68-7.68 36.80-7.68L36.80-7.68L36.80-7.68Q42.72-7.68 47.60-12L47.60-12L47.60-12Q52.48-16.32 52.48-21.20L52.48-21.20L52.48-21.20Q52.48-26.08 49.36-29.60L49.36-29.60L49.36-29.60Q46.24-33.12 41.60-35.92L41.60-35.92L41.60-35.92Q36.96-38.72 31.60-41.44L31.60-41.44L31.60-41.44Q26.24-44.16 21.60-48L21.60-48L21.60-48Q10.72-56.80 10.72-70.88L10.72-70.88L10.72-70.88Q10.72-80 15.20-87.12L15.20-87.12L15.20-87.12Q19.68-94.24 26.88-99.04L26.88-99.04L26.88-99.04Q41.28-108.80 58.96-108.80L58.96-108.80L58.96-108.80Q76.64-108.80 85.20-103.52L85.20-103.52L85.20-103.52Q93.76-98.24 93.76-89.28L93.76-89.28L93.76-89.28Q93.76-81.44 87.68-76.48L87.68-76.48L87.68-76.48Q82.40-72.32 76-72.32L76-72.32L76-72.32Q69.60-72.32 65.12-73.92ZM104.08-4.80L104.08-4.80L104.08-4.80Q100.32-8.96 98.64-15.52L98.64-15.52L98.64-15.52Q96.96-22.08 96.96-32.80L96.96-32.80L96.96-32.80Q96.96-43.52 100.64-53.28L100.64-53.28L100.64-53.28Q104.32-63.04 111.04-70.08L111.04-70.08L111.04-70.08Q124.80-84.80 147.52-84.80L147.52-84.80L147.52-84.80Q155.68-84.80 161.60-82.08L161.60-82.08L188.96-84.80L177.12-22.40L177.12-22.40Q176.64-20.48 176.64-16.96L176.64-16.96L176.64-16.96Q176.64-13.44 178.80-11.20L178.80-11.20L178.80-11.20Q180.96-8.96 184.16-8.64L184.16-8.64L184.16-8.64Q182.56-3.20 176.72 0L176.72 0L176.72 0Q170.88 3.20 164.32 3.20L164.32 3.20L164.32 3.20Q157.76 3.20 153.36 0.72L153.36 0.72L153.36 0.72Q148.96-1.76 147.68-5.92L147.68-5.92L147.68-5.92Q145.12-1.92 139.68 0.64L139.68 0.64L139.68 0.64Q134.24 3.20 126.96 3.20L126.96 3.20L126.96 3.20Q119.68 3.20 113.76 1.28L113.76 1.28L113.76 1.28Q107.84-0.64 104.08-4.80ZM137.84-69.76L137.84-69.76L137.84-69.76Q136-66.88 134.40-62L134.40-62L134.40-62Q132.80-57.12 130.16-44.08L130.16-44.08L130.16-44.08Q127.52-31.04 127.52-21.76L127.52-21.76L127.52-21.76Q127.52-12.48 128.96-9.76L128.96-9.76L128.96-9.76Q130.40-7.04 132.96-7.04L132.96-7.04L132.96-7.04Q138.08-7.04 141.84-11.92L141.84-11.92L141.84-11.92Q145.60-16.80 147.04-25.44L147.04-25.44L155.52-72.32L155.52-72.32Q152.16-75.20 148.24-75.20L148.24-75.20L148.24-75.20Q144.32-75.20 142-73.92L142-73.92L142-73.92Q139.68-72.64 137.84-69.76ZM260-92.80L260-92.80L260-92.80Q262.24-96.64 262.24-100.80L262.24-100.80L262.24-100.80Q262.24-108.16 257.76-108.16L257.76-108.16L257.76-108.16Q250.88-108.16 248-94.08L248-94.08L245.60-81.60L260.16-81.60L259.20-74.40L244.16-74.40L229.76 0L197.44 3.20L212.80-74.40L201.44-74.40L202.88-81.60L214.08-81.60L217.44-94.24L217.44-94.24Q220.32-105.92 232.64-111.36L232.64-111.36L232.64-111.36Q241.60-115.20 256.64-115.20L256.64-115.20L256.64-115.20Q271.68-115.20 278.40-111.36L278.40-111.36L278.40-111.36Q285.12-107.52 285.12-102.40L285.12-102.40L285.12-102.40Q285.12-97.28 281.12-94.08L281.12-94.08L281.12-94.08Q277.12-90.88 272.64-90.88L272.64-90.88L272.64-90.88Q263.84-90.88 260-92.80ZM322.24-27.04L322.24-27.04L322.24-27.04Q326.24-24.32 326.24-18.32L326.24-18.32L326.24-18.32Q326.24-12.32 323.20-8.48L323.20-8.48L323.20-8.48Q320.16-4.64 315.20-2.08L315.20-2.08L315.20-2.08Q304.96 3.20 293.92 3.20L293.92 3.20L293.92 3.20Q282.88 3.20 276.40 0.80L276.40 0.80L276.40 0.80Q269.92-1.60 265.60-6.08L265.60-6.08L265.60-6.08Q257.12-14.56 257.12-30.08L257.12-30.08L257.12-30.08Q257.12-54.24 270.24-68.96L270.24-68.96L270.24-68.96Q284.32-84.80 308.80-84.80L308.80-84.80L308.80-84.80Q324-84.80 331.52-78.40L331.52-78.40L331.52-78.40Q337.12-73.60 337.12-65.76L337.12-65.76L337.12-65.76Q337.12-37.60 288.48-37.60L288.48-37.60L288.48-37.60Q287.84-33.44 287.84-29.92L287.84-29.92L287.84-29.92Q287.84-22.56 291.12-19.76L291.12-19.76L291.12-19.76Q294.40-16.96 300.48-16.96L300.48-16.96L300.48-16.96Q306.56-16.96 313.04-19.76L313.04-19.76L313.04-19.76Q319.52-22.56 322.24-27.04ZM289.60-44.48L289.60-44.48L289.60-44.48Q300.96-44.48 307.52-51.52L307.52-51.52L307.52-51.52Q314.08-58.24 314.08-68.96L314.08-68.96L314.08-68.96Q314.08-72.64 312.72-74.64L312.72-74.64L312.72-74.64Q311.36-76.64 308.64-76.64L308.64-76.64L308.64-76.64Q305.92-76.64 303.60-75.60L303.60-75.60L303.60-75.60Q301.28-74.56 298.88-71.04L298.88-71.04L298.88-71.04Q292.96-63.04 289.60-44.48ZM402.24-12L402.24-12L402.24-12Q402.24-23.20 406.72-45.60L406.72-45.60L383.04-45.60L374.24 0L340.80 0L361.12-105.60L394.88-105.60L385.60-58.40L409.28-58.40L418.08-105.60L451.84-105.60L451.84-105.60Q449.60-93.76 446.72-80.48L446.72-80.48L441.28-54.40L441.28-54.40Q435.20-24 435.20-10.72L435.20-10.72L435.20-10.72Q435.20-5.28 436.96-2.24L436.96-2.24L436.96-2.24Q428.96 3.20 419.60 3.20L419.60 3.20L419.60 3.20Q410.24 3.20 406.24-1.28L406.24-1.28L406.24-1.28Q402.24-5.76 402.24-12ZM462.64-4.80L462.64-4.80L462.64-4.80Q458.88-8.96 457.20-15.52L457.20-15.52L457.20-15.52Q455.52-22.08 455.52-32.80L455.52-32.80L455.52-32.80Q455.52-43.52 459.20-53.28L459.20-53.28L459.20-53.28Q462.88-63.04 469.60-70.08L469.60-70.08L469.60-70.08Q483.36-84.80 506.08-84.80L506.08-84.80L506.08-84.80Q514.24-84.80 520.16-82.08L520.16-82.08L547.52-84.80L535.68-22.40L535.68-22.40Q535.20-20.48 535.20-16.96L535.20-16.96L535.20-16.96Q535.20-13.44 537.36-11.20L537.36-11.20L537.36-11.20Q539.52-8.96 542.72-8.64L542.72-8.64L542.72-8.64Q541.12-3.20 535.28 0L535.28 0L535.28 0Q529.44 3.20 522.88 3.20L522.88 3.20L522.88 3.20Q516.32 3.20 511.92 0.72L511.92 0.72L511.92 0.72Q507.52-1.76 506.24-5.92L506.24-5.92L506.24-5.92Q503.68-1.92 498.24 0.64L498.24 0.64L498.24 0.64Q492.80 3.20 485.52 3.20L485.52 3.20L485.52 3.20Q478.24 3.20 472.32 1.28L472.32 1.28L472.32 1.28Q466.40-0.64 462.64-4.80ZM496.40-69.76L496.40-69.76L496.40-69.76Q494.56-66.88 492.96-62L492.96-62L492.96-62Q491.36-57.12 488.72-44.08L488.72-44.08L488.72-44.08Q486.08-31.04 486.08-21.76L486.08-21.76L486.08-21.76Q486.08-12.48 487.52-9.76L487.52-9.76L487.52-9.76Q488.96-7.04 491.52-7.04L491.52-7.04L491.52-7.04Q496.64-7.04 500.40-11.92L500.40-11.92L500.40-11.92Q504.16-16.80 505.60-25.44L505.60-25.44L514.08-72.32L514.08-72.32Q510.72-75.20 506.80-75.20L506.80-75.20L506.80-75.20Q502.88-75.20 500.56-73.92L500.56-73.92L500.56-73.92Q498.24-72.64 496.40-69.76ZM614.24-78.88L614.24-78.88L614.24-78.88Q619.52-84.80 628.64-84.80L628.64-84.80L628.64-84.80Q634.24-84.80 638.56-81.76L638.56-81.76L638.56-81.76Q642.88-78.72 642.88-73.04L642.88-73.04L642.88-73.04Q642.88-67.36 641.12-61.28L641.12-61.28L641.12-61.28Q639.36-55.20 636.64-48.96L636.64-48.96L636.64-48.96Q631.20-36.80 623.68-26.72L623.68-26.72L623.68-26.72Q613.12-12.16 602.96-4.48L602.96-4.48L602.96-4.48Q592.80 3.20 581.76 3.20L581.76 3.20L581.76 3.20Q572.80 3.20 567.36 1.12L567.36 1.12L567.36 1.12Q566.40-32.48 565.20-44.48L565.20-44.48L565.20-44.48Q564-56.48 563.04-63.04L563.04-63.04L563.04-63.04Q561.44-75.84 556.64-78.88L556.64-78.88L556.64-78.88Q560.32-82.08 563.92-83.44L563.92-83.44L563.92-83.44Q567.52-84.80 574.96-84.80L574.96-84.80L574.96-84.80Q582.40-84.80 587.68-78.96L587.68-78.96L587.68-78.96Q592.96-73.12 594-62.80L594-62.80L594-62.80Q595.04-52.48 595.04-40L595.04-40L595.04-40Q595.04-27.52 594.08-12.48L594.08-12.48L594.08-12.48Q599.04-16 604.32-26.72L604.32-26.72L604.32-26.72Q611.52-41.60 614.08-59.52L614.08-59.52L614.08-59.52Q614.88-64.96 614.88-70.72L614.88-70.72L614.88-70.72Q614.88-76.48 614.24-78.88ZM712-27.04L712-27.04L712-27.04Q716-24.32 716-18.32L716-18.32L716-18.32Q716-12.32 712.96-8.48L712.96-8.48L712.96-8.48Q709.92-4.64 704.96-2.08L704.96-2.08L704.96-2.08Q694.72 3.20 683.68 3.20L683.68 3.20L683.68 3.20Q672.64 3.20 666.16 0.80L666.16 0.80L666.16 0.80Q659.68-1.60 655.36-6.08L655.36-6.08L655.36-6.08Q646.88-14.56 646.88-30.08L646.88-30.08L646.88-30.08Q646.88-54.24 660-68.96L660-68.96L660-68.96Q674.08-84.80 698.56-84.80L698.56-84.80L698.56-84.80Q713.76-84.80 721.28-78.40L721.28-78.40L721.28-78.40Q726.88-73.60 726.88-65.76L726.88-65.76L726.88-65.76Q726.88-37.60 678.24-37.60L678.24-37.60L678.24-37.60Q677.60-33.44 677.60-29.92L677.60-29.92L677.60-29.92Q677.60-22.56 680.88-19.76L680.88-19.76L680.88-19.76Q684.16-16.96 690.24-16.96L690.24-16.96L690.24-16.96Q696.32-16.96 702.80-19.76L702.80-19.76L702.80-19.76Q709.28-22.56 712-27.04ZM679.36-44.48L679.36-44.48L679.36-44.48Q690.72-44.48 697.28-51.52L697.28-51.52L697.28-51.52Q703.84-58.24 703.84-68.96L703.84-68.96L703.84-68.96Q703.84-72.64 702.48-74.64L702.48-74.64L702.48-74.64Q701.12-76.64 698.40-76.64L698.40-76.64L698.40-76.64Q695.68-76.64 693.36-75.60L693.36-75.60L693.36-75.60Q691.04-74.56 688.64-71.04L688.64-71.04L688.64-71.04Q682.72-63.04 679.36-44.48ZM800 3.20L800 3.20L800 3.20Q780.64 3.20 780.64-11.84L780.64-11.84L780.64-11.84Q780.80-16 782.08-23.04L782.08-23.04L784.96-37.76L784.96-37.76Q789.28-58.56 789.28-63.20L789.28-63.20L789.28-63.20Q789.28-72.48 783.84-72.48L783.84-72.48L783.84-72.48Q774.72-72.48 769.92-48.64L769.92-48.64L760.48 0L728.32 3.20L744.96-81.76L771.20-84.80L768.64-69.12L768.64-69.12Q776.16-84.80 799.20-84.80L799.20-84.80L799.20-84.80Q810.40-84.80 815.12-80.08L815.12-80.08L815.12-80.08Q819.84-75.36 819.84-64.80L819.84-64.80L819.84-64.80Q819.84-54.88 814.72-31.68L814.72-31.68L814.72-31.68Q812.32-21.28 812.32-17.36L812.32-17.36L812.32-17.36Q812.32-13.44 814.48-11.20L814.48-11.20L814.48-11.20Q816.64-8.96 819.84-8.64L819.84-8.64L819.84-8.64Q818.24-3.20 812.72 0L812.72 0L812.72 0Q807.20 3.20 800 3.20Z" fill="url(#editing-sticker-gradient)" stroke="#000000" stroke-width="2.5"></path></g></g><style>text {
  font-size: 64px;
  font-family: Arial Black;
  dominant-baseline: central;
  text-anchor: middle;
}</style></svg>