<svg width="1263.3687499999999px" height="198.79999999999998px" xmlns="http://www.w3.org/2000/svg" viewBox="-381.68437499999993 -24.39999999999999 1263.3687499999999 198.79999999999998" style="background: rgba(0, 0, 0, 0);" preserveAspectRatio="xMidYMid"><defs><linearGradient id="editing-sticker-gradient" x1="0.5" y1="0.2" x2="0.5" y2="0.8"><stop offset="0" stop-color="#fd9"></stop><stop offset="1" stop-color="#9df"></stop></linearGradient><filter id="editing-sticker" x="-100%" y="-100%" width="300%" height="300%"><feMorphology operator="erode" radius="1" in="SourceAlpha" result="alpha-erode"></feMorphology><feConvolveMatrix order="3,3" divisor="1" kernelMatrix="0 1 0 1 1 1 0 1 0" in="alpha-erode" result="alpha-round"></feConvolveMatrix><feMorphology operator="dilate" radius="3.5" in="alpha-round" result="dilate-shadow"></feMorphology><feGaussianBlur in="dilate-shadow" stdDeviation="1.5" result="shadow"></feGaussianBlur><feFlood flood-color="#fff" result="flood-sticker"></feFlood><feComposite operator="in" in="flood-sticker" in2="alpha-round" result="comp-sticker"></feComposite><feMorphology operator="dilate" radius="3" in="comp-sticker" result="morph-sticker"></feMorphology><feConvolveMatrix order="3,3" divisor="1" kernelMatrix="0 1 0 1 1 1 0 1 0" in="morph-sticker" result="sticker"></feConvolveMatrix><feMerge><feMergeNode in="shadow"></feMergeNode><feMergeNode in="sticker"></feMergeNode><feMergeNode in="SourceGraphic"></feMergeNode></feMerge></filter></defs><g filter="url(#editing-sticker)"><g transform="translate(-206.51996582746506, 124.72000122070312)"><path d="M44.07-8.47L44.07-8.47L44.07-8.47Q44.07-16.39 47.23-32.20L47.23-32.20L30.51-32.20L24.30 0L0.68 0L15.03-74.58L38.87-74.58L32.32-41.25L49.04-41.25L55.26-74.58L79.10-74.58L79.10-74.58Q77.52-66.22 75.48-56.84L75.48-56.84L71.64-38.42L71.64-38.42Q67.35-16.95 67.35-7.57L67.35-7.57L67.35-7.57Q67.35-3.73 68.59-1.58L68.59-1.58L68.59-1.58Q62.94 2.26 56.33 2.26L56.33 2.26L56.33 2.26Q49.72 2.26 46.90-0.90L46.90-0.90L46.90-0.90Q44.07-4.07 44.07-8.47ZM106.45 2.26L106.45 2.26L106.45 2.26Q81.59 2.26 81.59-21.13L81.59-21.13L81.59-21.13Q81.59-37.74 90.74-48.48L90.74-48.48L90.74-48.48Q100.46-59.89 117.29-59.89L117.29-59.89L117.29-59.89Q129.50-59.89 135.71-54.24L135.71-54.24L135.71-54.24Q141.93-48.59 141.93-36.73L141.93-36.73L141.93-36.73Q141.93-18.64 132.21-8.14L132.21-8.14L132.21-8.14Q122.72 2.26 106.45 2.26ZM109.38-46.90L109.38-46.90L109.38-46.90Q108.03-43.84 106.95-39.27L106.95-39.27L106.95-39.27Q105.88-34.69 104.53-27.46L104.53-27.46L104.53-27.46Q103.17-20.23 103.17-11.30L103.17-11.30L103.17-11.30Q103.17-8.36 104.13-6.44L104.13-6.44L104.13-6.44Q105.09-4.52 107.69-4.52L107.69-4.52L107.69-4.52Q110.29-4.52 111.93-5.76L111.93-5.76L111.93-5.76Q113.56-7.01 114.81-9.94L114.81-9.94L114.81-9.94Q117.07-15.14 118.88-24.80L118.88-24.80L118.88-24.80Q120.68-34.47 120.85-38.65L120.85-38.65L120.85-38.65Q121.02-42.83 121.02-45.93L121.02-45.93L121.02-45.93Q121.02-49.04 120.12-51.08L120.12-51.08L120.12-51.08Q119.22-53.11 116.67-53.11L116.67-53.11L116.67-53.11Q114.13-53.11 112.44-51.53L112.44-51.53L112.44-51.53Q110.74-49.95 109.38-46.90ZM201.25-7.74L201.25-7.74L201.25-7.74Q196.51-2.94 190.01-0.34L190.01-0.34L190.01-0.34Q183.51 2.26 177.07 2.26L177.07 2.26L177.07 2.26Q170.63 2.26 168.37 1.13L168.37 1.13L164.87 20.34L141.93 22.60L157.52-57.63L175.94-59.55L174.47-51.75L174.47-51.75Q179.22-59.78 189.05-59.78L189.05-59.78L189.05-59.78Q200.12-59.78 206.00-52.66L206.00-52.66L206.00-52.66Q211.20-46.22 211.20-36.39L211.20-36.39L211.20-36.39Q211.20-26.55 208.60-19.55L208.60-19.55L208.60-19.55Q206.00-12.54 201.25-7.74ZM175.72-39.44L169.73-6.33L169.73-6.33Q172.10-4.29 175.04-4.29L175.04-4.29L175.04-4.29Q177.98-4.29 179.67-5.42L179.67-5.42L179.67-5.42Q181.37-6.55 182.61-8.81L182.61-8.81L182.61-8.81Q186.00-14.92 188.71-33.45L188.71-33.45L188.71-33.45Q189.50-38.87 189.50-44.18L189.50-44.18L189.50-44.18Q189.50-49.49 188.31-51.19L188.31-51.19L188.31-51.19Q187.13-52.88 184.87-52.88L184.87-52.88L184.87-52.88Q177.98-52.88 175.72-39.44L175.72-39.44ZM263.74-19.10L263.74-19.10L263.74-19.10Q266.57-17.18 266.57-12.94L266.57-12.94L266.57-12.94Q266.57-8.70 264.42-5.99L264.42-5.99L264.42-5.99Q262.27-3.28 258.77-1.47L258.77-1.47L258.77-1.47Q251.54 2.26 243.74 2.26L243.74 2.26L243.74 2.26Q235.94 2.26 231.37 0.57L231.37 0.57L231.37 0.57Q226.79-1.13 223.74-4.29L223.74-4.29L223.74-4.29Q217.75-10.28 217.75-21.24L217.75-21.24L217.75-21.24Q217.75-38.31 227.02-48.70L227.02-48.70L227.02-48.70Q236.96-59.89 254.25-59.89L254.25-59.89L254.25-59.89Q264.99-59.89 270.30-55.37L270.30-55.37L270.30-55.37Q274.25-51.98 274.25-46.44L274.25-46.44L274.25-46.44Q274.25-26.55 239.90-26.55L239.90-26.55L239.90-26.55Q239.45-23.62 239.45-21.13L239.45-21.13L239.45-21.13Q239.45-15.93 241.76-13.96L241.76-13.96L241.76-13.96Q244.08-11.98 248.37-11.98L248.37-11.98L248.37-11.98Q252.67-11.98 257.24-13.96L257.24-13.96L257.24-13.96Q261.82-15.93 263.74-19.10ZM240.69-31.41L240.69-31.41L240.69-31.41Q248.71-31.41 253.35-36.39L253.35-36.39L253.35-36.39Q257.98-41.13 257.98-48.70L257.98-48.70L257.98-48.70Q257.98-51.30 257.02-52.71L257.02-52.71L257.02-52.71Q256.06-54.13 254.14-54.13L254.14-54.13L254.14-54.13Q252.22-54.13 250.58-53.39L250.58-53.39L250.58-53.39Q248.94-52.66 247.24-50.17L247.24-50.17L247.24-50.17Q243.06-44.52 240.69-31.41ZM345.44-52.21L345.44-52.21L345.44-52.21Q347.14-55.60 347.14-58.76L347.14-58.76L347.14-58.76Q347.14-61.92 346.80-63.68L346.80-63.68L346.80-63.68Q346.46-65.43 345.67-66.78L345.67-66.78L345.67-66.78Q343.97-69.72 340.58-69.72L340.58-69.72L340.58-69.72Q336.40-69.72 333.01-66.67L333.01-66.67L333.01-66.67Q329.40-63.51 329.40-58.53L329.40-58.53L329.40-58.53Q329.40-55.37 331.60-52.94L331.60-52.94L331.60-52.94Q333.80-50.51 337.19-48.25L337.19-48.25L337.19-48.25Q340.58-45.99 344.42-43.73L344.42-43.73L344.42-43.73Q348.27-41.47 351.66-38.76L351.66-38.76L351.66-38.76Q359.45-32.54 359.45-24.18L359.45-24.18L359.45-24.18Q359.45-18.53 356.46-13.73L356.46-13.73L356.46-13.73Q353.46-8.93 348.49-5.42L348.49-5.42L348.49-5.42Q337.64 2.26 323.29 2.26L323.29 2.26L323.29 2.26Q311.65 2.26 305.67-1.53L305.67-1.53L305.67-1.53Q299.68-5.31 299.68-11.07L299.68-11.07L299.68-11.07Q299.68-21.36 307.70-23.96L307.70-23.96L307.70-23.96Q309.96-24.75 313.41-24.75L313.41-24.75L313.41-24.75Q316.85-24.75 320.81-23.28L320.81-23.28L320.81-23.28Q319.00-18.64 319.00-14.46L319.00-14.46L319.00-14.46Q319.00-5.42 325.44-5.42L325.44-5.42L325.44-5.42Q329.62-5.42 333.07-8.47L333.07-8.47L333.07-8.47Q336.51-11.53 336.51-14.97L336.51-14.97L336.51-14.97Q336.51-18.42 334.31-20.91L334.31-20.91L334.31-20.91Q332.11-23.39 328.83-25.37L328.83-25.37L328.83-25.37Q325.55-27.35 321.77-29.27L321.77-29.27L321.77-29.27Q317.98-31.19 314.71-33.90L314.71-33.90L314.71-33.90Q307.02-40.12 307.02-50.06L307.02-50.06L307.02-50.06Q307.02-56.50 310.19-61.53L310.19-61.53L310.19-61.53Q313.35-66.56 318.43-69.95L318.43-69.95L318.43-69.95Q328.60-76.84 341.09-76.84L341.09-76.84L341.09-76.84Q353.58-76.84 359.62-73.11L359.62-73.11L359.62-73.11Q365.67-69.38 365.67-63.05L365.67-63.05L365.67-63.05Q365.67-57.52 361.37-54.01L361.37-54.01L361.37-54.01Q357.65-51.08 353.13-51.08L353.13-51.08L353.13-51.08Q348.61-51.08 345.44-52.21ZM369.85-11.30L369.85-11.30L369.85-11.30Q369.85-14.35 371.43-22.04L371.43-22.04L377.42-52.55L370.75-52.55L371.21-55.94L371.21-55.94Q384.77-60.00 397.87-69.95L397.87-69.95L403.30-69.95L400.59-57.63L409.40-57.63L408.38-52.55L399.68-52.55L393.92-22.04L393.92-22.04Q392.45-15.03 392.45-12.66L392.45-12.66L392.45-12.66Q392.45-7.23 397.20-6.10L397.20-6.10L397.20-6.10Q396.07-2.26 392.00 0L392.00 0L392.00 0Q387.93 2.26 382.17 2.26L382.17 2.26L382.17 2.26Q376.40 2.26 373.13-1.36L373.13-1.36L373.13-1.36Q369.85-4.97 369.85-11.30ZM413.30-3.39L413.30-3.39L413.30-3.39Q410.64-6.33 409.46-10.96L409.46-10.96L409.46-10.96Q408.27-15.59 408.27-23.16L408.27-23.16L408.27-23.16Q408.27-30.74 410.87-37.63L410.87-37.63L410.87-37.63Q413.47-44.52 418.21-49.49L418.21-49.49L418.21-49.49Q427.93-59.89 443.98-59.89L443.98-59.89L443.98-59.89Q449.74-59.89 453.92-57.97L453.92-57.97L473.24-59.89L464.88-15.82L464.88-15.82Q464.54-14.46 464.54-11.98L464.54-11.98L464.54-11.98Q464.54-9.49 466.07-7.91L466.07-7.91L466.07-7.91Q467.59-6.33 469.85-6.10L469.85-6.10L469.85-6.10Q468.72-2.26 464.60 0L464.60 0L464.60 0Q460.48 2.26 455.84 2.26L455.84 2.26L455.84 2.26Q451.21 2.26 448.10 0.51L448.10 0.51L448.10 0.51Q444.99-1.24 444.09-4.18L444.09-4.18L444.09-4.18Q442.28-1.36 438.44 0.45L438.44 0.45L438.44 0.45Q434.60 2.26 429.46 2.26L429.46 2.26L429.46 2.26Q424.32 2.26 420.13 0.90L420.13 0.90L420.13 0.90Q415.95-0.45 413.30-3.39ZM437.14-49.27L437.14-49.27L437.14-49.27Q435.84-47.23 434.71-43.79L434.71-43.79L434.71-43.79Q433.58-40.34 431.72-31.13L431.72-31.13L431.72-31.13Q429.85-21.92 429.85-15.37L429.85-15.37L429.85-15.37Q429.85-8.81 430.87-6.89L430.87-6.89L430.87-6.89Q431.89-4.97 433.69-4.97L433.69-4.97L433.69-4.97Q437.31-4.97 439.97-8.42L439.97-8.42L439.97-8.42Q442.62-11.87 443.64-17.97L443.64-17.97L449.63-51.08L449.63-51.08Q447.25-53.11 444.49-53.11L444.49-53.11L444.49-53.11Q441.72-53.11 440.08-52.21L440.08-52.21L440.08-52.21Q438.44-51.30 437.14-49.27ZM514.72-31.75L514.72-31.75L514.72-31.75Q518.78-38.98 518.78-46.33L518.78-46.33L518.78-46.33Q518.78-51.19 515.28-51.19L515.28-51.19L515.28-51.19Q512.57-51.19 509.74-46.56L509.74-46.56L509.74-46.56Q506.81-41.92 505.90-35.93L505.90-35.93L500.03 0L476.63 2.26L488.16-57.63L506.81-59.89L504.77-48.48L504.77-48.48Q510.31-59.89 522.74-59.89L522.74-59.89L522.74-59.89Q529.29-59.89 532.85-56.50L532.85-56.50L532.85-56.50Q536.41-53.11 536.41-46.16L536.41-46.16L536.41-46.16Q536.41-39.21 531.83-34.80L531.83-34.80L531.83-34.80Q527.26-30.40 519.46-30.40L519.46-30.40L519.46-30.40Q516.07-30.40 514.72-31.75ZM540.03-11.30L540.03-11.30L540.03-11.30Q540.03-14.35 541.61-22.04L541.61-22.04L547.60-52.55L540.93-52.55L541.38-55.94L541.38-55.94Q554.94-60.00 568.05-69.95L568.05-69.95L573.48-69.95L570.76-57.63L579.58-57.63L578.56-52.55L569.86-52.55L564.10-22.04L564.10-22.04Q562.63-15.03 562.63-12.66L562.63-12.66L562.63-12.66Q562.63-7.23 567.37-6.10L567.37-6.10L567.37-6.10Q566.24-2.26 562.18 0L562.18 0L562.18 0Q558.11 2.26 552.34 2.26L552.34 2.26L552.34 2.26Q546.58 2.26 543.30-1.36L543.30-1.36L543.30-1.36Q540.03-4.97 540.03-11.30ZM612.80-39.66L612.80-39.66L612.80-39.66Q614.38-43.84 614.38-47.46L614.38-47.46L614.38-47.46Q614.38-54.13 608.96-54.13L608.96-54.13L608.96-54.13Q606.13-54.13 603.82-51.58L603.82-51.58L603.82-51.58Q601.50-49.04 601.50-45.88L601.50-45.88L601.50-45.88Q601.50-43.62 603.31-41.81L603.31-41.81L603.31-41.81Q605.91-39.32 612.57-35.26L612.57-35.26L612.57-35.26Q619.24-31.19 621.78-27.85L621.78-27.85L621.78-27.85Q624.33-24.52 624.33-19.94L624.33-19.94L624.33-19.94Q624.33-15.37 622.12-11.19L622.12-11.19L622.12-11.19Q619.92-7.01 615.96-4.07L615.96-4.07L615.96-4.07Q607.49 2.26 593.93 2.26L593.93 2.26L593.93 2.26Q586.58 2.26 580.93-1.58L580.93-1.58L580.93-1.58Q575.28-5.31 575.28-9.72L575.28-9.72L575.28-9.72Q575.28-14.13 578.50-16.72L578.50-16.72L578.50-16.72Q581.72-19.32 586.47-19.32L586.47-19.32L586.47-19.32Q591.22-19.32 594.15-17.52L594.15-17.52L594.15-17.52Q592.69-13.79 592.69-11.30L592.69-11.30L592.69-11.30Q592.69-3.84 599.01-3.84L599.01-3.84L599.01-3.84Q601.73-3.84 603.53-5.54L603.53-5.54L603.53-5.54Q605.34-7.23 605.34-10.17L605.34-10.17L605.34-10.17Q605.34-15.93 595.62-22.04L595.62-22.04L595.62-22.04Q587.71-27.23 585.91-29.27L585.91-29.27L585.91-29.27Q582.85-32.88 582.85-37.40L582.85-37.40L582.85-37.40Q582.85-41.92 585.00-46.22L585.00-46.22L585.00-46.22Q587.15-50.51 591.10-53.56L591.10-53.56L591.10-53.56Q599.35-59.89 613.70-59.89L613.70-59.89L613.70-59.89Q621.05-59.89 625.40-56.95L625.40-56.95L625.40-56.95Q629.75-54.01 629.75-49.04L629.75-49.04L629.75-49.04Q629.75-44.07 626.75-41.25L626.75-41.25L626.75-41.25Q623.76-38.42 618.34-38.42L618.34-38.42L618.34-38.42Q614.61-38.42 612.80-39.66ZM699.36-8.47L699.36-8.47L699.36-8.47Q699.36-16.39 702.52-32.20L702.52-32.20L685.80-32.20L679.58 0L655.97 0L670.32-74.58L694.16-74.58L687.61-41.25L704.33-41.25L710.54-74.58L734.39-74.58L734.39-74.58Q732.81-66.22 730.77-56.84L730.77-56.84L726.93-38.42L726.93-38.42Q722.64-16.95 722.64-7.57L722.64-7.57L722.64-7.57Q722.64-3.73 723.88-1.58L723.88-1.58L723.88-1.58Q718.23 2.26 711.62 2.26L711.62 2.26L711.62 2.26Q705.01 2.26 702.18-0.90L702.18-0.90L702.18-0.90Q699.36-4.07 699.36-8.47ZM782.86-19.10L782.86-19.10L782.86-19.10Q785.69-17.18 785.69-12.94L785.69-12.94L785.69-12.94Q785.69-8.70 783.54-5.99L783.54-5.99L783.54-5.99Q781.40-3.28 777.89-1.47L777.89-1.47L777.89-1.47Q770.66 2.26 762.86 2.26L762.86 2.26L762.86 2.26Q755.07 2.26 750.49 0.57L750.49 0.57L750.49 0.57Q745.91-1.13 742.86-4.29L742.86-4.29L742.86-4.29Q736.87-10.28 736.87-21.24L736.87-21.24L736.87-21.24Q736.87-38.31 746.14-48.70L746.14-48.70L746.14-48.70Q756.08-59.89 773.37-59.89L773.37-59.89L773.37-59.89Q784.11-59.89 789.42-55.37L789.42-55.37L789.42-55.37Q793.37-51.98 793.37-46.44L793.37-46.44L793.37-46.44Q793.37-26.55 759.02-26.55L759.02-26.55L759.02-26.55Q758.57-23.62 758.57-21.13L758.57-21.13L758.57-21.13Q758.57-15.93 760.89-13.96L760.89-13.96L760.89-13.96Q763.20-11.98 767.50-11.98L767.50-11.98L767.50-11.98Q771.79-11.98 776.37-13.96L776.37-13.96L776.37-13.96Q780.94-15.93 782.86-19.10ZM759.81-31.41L759.81-31.41L759.81-31.41Q767.84-31.41 772.47-36.39L772.47-36.39L772.47-36.39Q777.10-41.13 777.10-48.70L777.10-48.70L777.10-48.70Q777.10-51.30 776.14-52.71L776.14-52.71L776.14-52.71Q775.18-54.13 773.26-54.13L773.26-54.13L773.26-54.13Q771.34-54.13 769.70-53.39L769.70-53.39L769.70-53.39Q768.06-52.66 766.37-50.17L766.37-50.17L766.37-50.17Q762.19-44.52 759.81-31.41ZM832.58-31.75L832.58-31.75L832.58-31.75Q836.65-38.98 836.65-46.33L836.65-46.33L836.65-46.33Q836.65-51.19 833.15-51.19L833.15-51.19L833.15-51.19Q830.44-51.19 827.61-46.56L827.61-46.56L827.61-46.56Q824.67-41.92 823.77-35.93L823.77-35.93L817.89 0L794.50 2.26L806.03-57.63L824.67-59.89L822.64-48.48L822.64-48.48Q828.18-59.89 840.61-59.89L840.61-59.89L840.61-59.89Q847.16-59.89 850.72-56.50L850.72-56.50L850.72-56.50Q854.28-53.11 854.28-46.16L854.28-46.16L854.28-46.16Q854.28-39.21 849.70-34.80L849.70-34.80L849.70-34.80Q845.13-30.40 837.33-30.40L837.33-30.40L837.33-30.40Q833.94-30.40 832.58-31.75ZM901.85-19.10L901.85-19.10L901.85-19.10Q904.68-17.18 904.68-12.94L904.68-12.94L904.68-12.94Q904.68-8.70 902.53-5.99L902.53-5.99L902.53-5.99Q900.38-3.28 896.88-1.47L896.88-1.47L896.88-1.47Q889.65 2.26 881.85 2.26L881.85 2.26L881.85 2.26Q874.06 2.26 869.48 0.57L869.48 0.57L869.48 0.57Q864.90-1.13 861.85-4.29L861.85-4.29L861.85-4.29Q855.86-10.28 855.86-21.24L855.86-21.24L855.86-21.24Q855.86-38.31 865.13-48.70L865.13-48.70L865.13-48.70Q875.07-59.89 892.36-59.89L892.36-59.89L892.36-59.89Q903.10-59.89 908.41-55.37L908.41-55.37L908.41-55.37Q912.36-51.98 912.36-46.44L912.36-46.44L912.36-46.44Q912.36-26.55 878.01-26.55L878.01-26.55L878.01-26.55Q877.56-23.62 877.56-21.13L877.56-21.13L877.56-21.13Q877.56-15.93 879.87-13.96L879.87-13.96L879.87-13.96Q882.19-11.98 886.49-11.98L886.49-11.98L886.49-11.98Q890.78-11.98 895.36-13.96L895.36-13.96L895.36-13.96Q899.93-15.93 901.85-19.10ZM878.80-31.41L878.80-31.41L878.80-31.41Q886.82-31.41 891.46-36.39L891.46-36.39L891.46-36.39Q896.09-41.13 896.09-48.70L896.09-48.70L896.09-48.70Q896.09-51.30 895.13-52.71L895.13-52.71L895.13-52.71Q894.17-54.13 892.25-54.13L892.25-54.13L892.25-54.13Q890.33-54.13 888.69-53.39L888.69-53.39L888.69-53.39Q887.05-52.66 885.36-50.17L885.36-50.17L885.36-50.17Q881.17-44.52 878.80-31.41Z" fill="url(#editing-sticker-gradient)" stroke="#000" stroke-width="4"></path></g></g><style>text {
  font-size: 64px;
  font-family: Arial Black;
  dominant-baseline: central;
  text-anchor: middle;
}</style></svg>